<svg width="122" height="120" viewBox="0 0 122 120" fill="none" xmlns="http://www.w3.org/2000/svg">
<path fill-rule="evenodd" clip-rule="evenodd" d="M97.3861 23.9586L94.3842 26.3068C97.3861 23.9586 97.3885 23.9616 97.3909 23.9647L97.396 23.9712L97.4069 23.985L97.4311 24.0164C97.4485 24.0389 97.4681 24.0648 97.4898 24.0941C97.5334 24.1527 97.5856 24.225 97.646 24.3118C97.7668 24.4855 97.92 24.7173 98.1007 25.0141C98.4622 25.6075 98.9337 26.4605 99.4764 27.6279C100.561 29.9615 101.933 33.5565 103.28 38.857C105.973 49.4481 108.587 66.9232 108.587 94.9021C108.587 99.1193 108.198 102.237 107.231 104.981C106.263 107.726 104.804 109.828 103.208 112.011L103.185 112.043L103.162 112.074C101.288 114.53 98.8673 116.523 96.0896 117.898C93.312 119.273 90.252 119.992 87.1479 120L87.1385 120H35.0063C21.9592 120 13.4324 108.518 13.4324 94.9945C13.4324 66.9862 15.8584 49.5116 18.3526 38.9341C19.6009 33.6406 20.8709 30.0543 21.8742 27.7287C22.3762 26.5652 22.8123 25.7153 23.1467 25.1239C23.314 24.8282 23.4558 24.597 23.5678 24.4236C23.6238 24.3369 23.6723 24.2646 23.7128 24.206C23.733 24.1766 23.7513 24.1507 23.7674 24.128L23.7901 24.0965L23.8002 24.0826L23.805 24.0761C23.8073 24.073 23.8095 24.0699 26.8935 26.3107L23.8095 24.0699L24.9546 22.5169L96.2383 22.5127L97.3861 23.9586ZM29.173 30.1045C29.0874 30.2904 28.9964 30.494 28.9006 30.7161C28.0965 32.5796 26.9567 35.7374 25.7951 40.6636C23.4696 50.5255 21.076 67.3928 21.076 94.9945C21.076 105.744 27.4787 112.412 35.0063 112.412L87.1291 112.412L87.1315 112.412C89.0569 112.407 90.9554 111.96 92.6789 111.107C94.392 110.259 95.886 109.033 97.0459 107.521C98.5912 105.406 99.4506 104.079 100.016 102.475C100.585 100.862 100.943 98.6978 100.943 94.9021C100.943 67.3634 98.3672 50.5408 95.8691 40.7136C94.6213 35.805 93.3977 32.6607 92.5361 30.8074C92.4149 30.5467 92.3009 30.3116 92.1951 30.1009L29.173 30.1045Z" fill="#FFB71B"/>
<path fill-rule="evenodd" clip-rule="evenodd" d="M54.9045 56.0479L50.2597 51.437L36.333 65.7232C36.0329 66.0305 35.7975 66.3926 35.6378 66.7876C35.4779 67.1828 35.3962 67.6049 35.3962 68.0299C35.3962 68.4549 35.4779 68.877 35.6378 69.2722C35.7976 69.6675 36.0336 70.0302 36.3339 70.3376L49.6443 83.9915L54.289 79.3806L46.4245 71.3156H74.8618C75.7271 71.3156 76.5681 71.6678 77.1967 72.3125C77.8269 72.9591 78.19 73.8468 78.19 74.783V92.2487H84.7V74.783C84.7 73.4718 84.4483 72.1723 83.958 70.9583C83.4678 69.7441 82.7479 68.6376 81.8369 67.7032C80.9259 66.7686 79.8414 66.0244 78.6441 65.5156C77.4466 65.0068 76.1612 64.7442 74.8618 64.7442H46.4245L54.9045 56.0479Z" fill="#623C84"/>
<path fill-rule="evenodd" clip-rule="evenodd" d="M45.3957 70.3376L54.2495 79.4199L49.6443 83.9915L36.3339 70.3376C36.0336 70.0302 35.7976 69.6675 35.6378 69.2722C35.4779 68.877 35.3962 68.4549 35.3962 68.0299C35.3962 67.6049 35.4779 67.1828 35.6378 66.7876C35.7975 66.3926 36.0329 66.0305 36.333 65.7232L50.2597 51.437L54.8649 56.0086L45.3948 65.7232C45.0947 66.0305 44.8593 66.3926 44.6996 66.7876C44.5397 67.1828 44.458 67.6049 44.458 68.0299C44.458 68.4549 44.5397 68.877 44.6996 69.2722C44.8594 69.6675 45.0954 70.0302 45.3957 70.3376Z" fill="#623C84"/>
<path fill-rule="evenodd" clip-rule="evenodd" d="M106.448 56.1446C105.532 48.9846 104.413 43.3118 103.28 38.857C101.933 33.5565 100.561 29.9615 99.4764 27.6279C98.9337 26.4605 98.4622 25.6075 98.1008 25.0141C97.92 24.7173 97.7668 24.4855 97.646 24.3118C97.5857 24.225 97.5334 24.1527 97.4899 24.0941C97.4681 24.0648 97.4485 24.0389 97.4312 24.0164L97.4069 23.985L97.3961 23.9712L97.391 23.9647C97.3885 23.9616 97.3861 23.9586 94.3843 26.3068L97.3861 23.9586L96.2384 22.5127L24.9546 22.5169L23.8096 24.0699L26.8936 26.3107C23.8096 24.0699 23.8073 24.073 23.805 24.0761L23.8002 24.0826L23.7901 24.0965L23.7675 24.128C23.7513 24.1507 23.7331 24.1766 23.7128 24.206C23.6723 24.2646 23.6238 24.3369 23.5678 24.4236C23.4559 24.597 23.314 24.8282 23.1468 25.1239C22.8124 25.7153 22.3763 26.5652 21.8743 27.7287C20.8709 30.0543 19.6009 33.6406 18.3527 38.9341C17.3069 43.3691 16.2731 49.0166 15.4251 56.1446H23.1238C23.9194 49.6979 24.8628 44.6176 25.7952 40.6636C26.9568 35.7374 28.0966 32.5796 28.9006 30.7161C28.9964 30.494 29.0874 30.2904 29.173 30.1045L92.1952 30.1009C92.301 30.3116 92.415 30.5467 92.5362 30.8074C93.3977 32.6607 94.6213 35.805 95.8691 40.7136C96.8706 44.6532 97.8846 49.7169 98.7401 56.1446H106.448Z" fill="#8B5DBC"/>
<path fill-rule="evenodd" clip-rule="evenodd" d="M108.294 79.3464C108.482 84.1309 108.587 89.3065 108.587 94.9023C108.587 99.1195 108.198 102.237 107.231 104.981C106.263 107.726 104.804 109.829 103.208 112.011L103.185 112.043L103.162 112.074C101.288 114.53 98.8673 116.523 96.0896 117.898C93.312 119.273 90.252 119.992 87.1479 120L87.1385 120H35.0063C21.9592 120 13.4324 108.518 13.4324 94.9947C13.4324 89.3625 13.5305 84.1563 13.7075 79.3464H21.3564C21.1765 84.1332 21.076 89.3385 21.076 94.9947C21.076 105.744 27.4787 112.412 35.0063 112.412H87.1291H87.1315C89.0569 112.407 90.9554 111.961 92.6789 111.107C94.392 110.26 95.8859 109.033 97.0459 107.522C98.5912 105.406 99.4506 104.08 100.016 102.475C100.585 100.862 100.943 98.698 100.943 94.9023C100.943 89.2811 100.836 84.1063 100.644 79.3464H108.294Z" fill="#E94E67"/>
<path fill-rule="evenodd" clip-rule="evenodd" d="M48.9806 15.7038C45.9911 21.1053 44.3777 28.7455 44.3777 37.1104V40.9044H36.734V37.1104C36.734 27.9412 38.4775 18.9231 42.2815 12.05C46.1406 5.07727 52.3623 0 61.016 0C69.671 0 75.8923 5.08243 79.7506 12.0557C83.5543 18.9302 85.2979 27.9479 85.2979 37.1104V40.9044H77.6543V37.1104C77.6543 28.7531 76.0409 21.1125 73.0511 15.7087C70.1159 10.4038 66.1071 7.58793 61.016 7.58793C55.9234 7.58793 51.9151 10.4018 48.9806 15.7038Z" fill="#623C84"/>
</svg>
