<svg width="24" height="24" viewBox="0 0 24 24" fill="none" xmlns="http://www.w3.org/2000/svg">
<path fill-rule="evenodd" clip-rule="evenodd" d="M4.03678 23.714C4.40507 23.9007 4.80883 23.9998 5.22137 24H19.0536C19.4661 23.9998 19.8702 23.9007 20.2385 23.714C20.6062 23.5277 20.9272 23.2602 21.186 22.9357C21.4447 22.6115 21.6373 22.2355 21.7573 21.8338C21.8773 21.432 21.9234 21.0086 21.8942 20.5888L21.0066 7.80505C20.9742 7.33758 20.79 6.88018 20.463 6.53116C20.1331 6.17906 19.6753 5.95972 19.174 5.95978H5.1012C4.59995 5.95972 4.14217 6.17906 3.81228 6.53116C3.49733 6.8673 3.31494 7.30396 3.27291 7.7531C3.27063 7.77029 3.26887 7.78762 3.26766 7.80508L2.38102 20.5888C2.3519 21.0086 2.39801 21.432 2.51798 21.8338C2.63795 22.2355 2.8306 22.6115 3.08926 22.9357C3.34809 23.2602 3.66912 23.5277 4.03678 23.714ZM5.01692 7.65985C5.06048 7.61336 5.09271 7.61057 5.10101 7.61057H19.1743C19.1826 7.61057 19.2148 7.61336 19.2583 7.65985C19.3055 7.71017 19.3515 7.80034 19.3598 7.91934L20.2474 20.7031C20.263 20.9276 20.238 21.1522 20.1755 21.3614C20.113 21.5707 20.0159 21.7554 19.8955 21.9062C19.7754 22.0568 19.6365 22.1684 19.4923 22.2415C19.3487 22.3143 19.1998 22.3491 19.0535 22.3492H5.22178L5.21037 22.3491C5.06775 22.3473 4.9228 22.3124 4.78299 22.2415C4.63875 22.1684 4.49987 22.0568 4.37974 21.9062C4.25941 21.7554 4.16223 21.5707 4.09975 21.3614C4.03728 21.1522 4.01228 20.9276 4.02786 20.703L4.91167 7.96015C4.91328 7.94663 4.91456 7.93302 4.91551 7.91933C4.92377 7.80033 4.96977 7.71018 5.01692 7.65985Z" fill="#EB0043"/>
<path d="M12.1377 0C10.865 0 9.64449 0.505564 8.74458 1.40547C7.84468 2.30538 7.33911 3.52592 7.33911 4.79859V9.76508C7.33911 10.2209 7.70865 10.5905 8.16451 10.5905C8.62036 10.5905 8.9899 10.2209 8.9899 9.76508V4.79859C8.9899 3.96374 9.32155 3.16309 9.91187 2.57276C10.5022 1.98244 11.3029 1.65079 12.1377 1.65079C12.9725 1.65079 13.7732 1.98244 14.3635 2.57276C14.9539 3.16309 15.2855 3.96374 15.2855 4.79859V9.76508C15.2855 10.2209 15.655 10.5905 16.1109 10.5905C16.5667 10.5905 16.9363 10.2209 16.9363 9.76508V4.79859C16.9363 3.52592 16.4307 2.30538 15.5308 1.40547C14.6309 0.505564 13.4104 0 12.1377 0Z" fill="#EB0043"/>
<path d="M9.82163 14.1548L11.126 12.8509C11.2692 12.7077 11.3497 12.5134 11.3497 12.3109C11.3497 12.1083 11.2692 11.9141 11.126 11.7709C10.9828 11.6276 10.7885 11.5472 10.586 11.5472C10.3834 11.5472 10.1892 11.6276 10.046 11.7709L7.43885 14.378C7.36805 14.4487 7.31159 14.5329 7.27313 14.6256C7.23465 14.7183 7.21484 14.8177 7.21484 14.9181C7.21484 15.0185 7.23465 15.118 7.27313 15.2107C7.31155 15.3033 7.3679 15.3875 7.43884 15.4583L9.9218 17.9413C10.065 18.0845 10.2593 18.1649 10.4618 18.1649C10.6644 18.1649 10.8586 18.0845 11.0018 17.9413C11.145 17.798 11.2255 17.6038 11.2255 17.4013C11.2255 17.1987 11.145 17.0044 11.0018 16.8612L9.82165 15.6814H14.8073C14.9341 15.6814 15.0558 15.7318 15.1454 15.8215C15.2351 15.9112 15.2855 16.0329 15.2855 16.1597V19.1394C15.2855 19.3419 15.3659 19.536 15.5091 19.6792C15.6522 19.8223 15.8464 19.9027 16.0488 19.9027C16.2513 19.9027 16.4454 19.8223 16.5886 19.6792C16.7317 19.536 16.8121 19.3419 16.8121 19.1394V16.1597C16.8121 15.8964 16.7603 15.6357 16.6595 15.3925C16.5588 15.1492 16.4111 14.9282 16.2249 14.7421C16.0387 14.5559 15.8177 14.4082 15.5745 14.3075C15.3312 14.2067 15.0705 14.1548 14.8073 14.1548H9.82163Z" fill="#EB0043"/>
</svg>
