<svg width="44" height="33" viewBox="0 0 44 33" fill="none" xmlns="http://www.w3.org/2000/svg">
<g clip-path="url(#clip0_10442_226491)">
<path d="M35.9996 0.5H13.0296C12.393 0.500257 11.7656 0.652463 11.1996 0.943967C10.6337 1.23547 10.1454 1.65785 9.77557 2.176L0.37357 15.338C0.130646 15.6768 0 16.0831 0 16.5C0 16.9169 0.130646 17.3232 0.37357 17.662L9.77557 30.824C10.1454 31.3421 10.6337 31.7645 11.1996 32.056C11.7656 32.3475 12.393 32.4997 13.0296 32.5H35.9996C38.2056 32.5 39.9996 30.706 39.9996 28.5V4.5C39.9996 2.294 38.2056 0.5 35.9996 0.5ZM35.9996 28.5H13.0296L4.45757 16.5L13.0296 4.5H35.9996V28.5Z" fill="white"/>
<path d="M14 20.5L16.828 23.328L21.414 18.742L26 23.328L28.828 20.5L24.242 15.914L28.828 11.328L26 8.5L21.414 13.086L16.828 8.5L14 11.328L18.586 15.914L14 20.5Z" fill="white"/>
</g>
<defs>
<clipPath id="clip0_10442_226491">
<rect width="44" height="32" fill="white" transform="translate(0 0.5)"/>
</clipPath>
</defs>
</svg>
