<svg width="1024" height="24" viewBox="0 0 1024 24" fill="none" xmlns="http://www.w3.org/2000/svg">
<path d="M816.153 24H848.176V0H816.153V24Z" fill="#CFD4D8"/>
<path d="M240.598 24H320.649V0H240.598V24Z" fill="#741472"/>
<path d="M63.9912 24H112V0H63.9912V24Z" fill="#FFD400"/>
<path d="M160.807 24H208.816V0H160.807V24Z" fill="#F15B5B"/>
<path d="M127.964 24H160.901V0H127.964V24Z" fill="#CFD4D8"/>
<path d="M320.294 24H352.299V0H320.294V24Z" fill="#CE171E"/>
<path d="M0 24H47.9893V0H0V24Z" fill="#CE171E"/>
<path d="M944.304 24H992.33V0H944.304V24Z" fill="#741472"/>
<path d="M352.225 24H400.251V0H352.225V24Z" fill="#CFD4D8"/>
<path d="M400.122 24H448.129V0H400.122V24Z" fill="#CE171E"/>
<path d="M208.686 24H240.709V0H208.686V24Z" fill="#FFD400"/>
<path d="M848.157 24H864.18V0H848.157V24Z" fill="white"/>
<path d="M480.283 24H528.161V0H480.283V24Z" fill="#FFD400"/>
<path d="M528.161 24H576.187V0H528.161V24Z" fill="#741472"/>
<path d="M576.15 24H608.192V0H576.15V24Z" fill="#F15B5B"/>
<path d="M608.118 24H624.27V0H608.118V24Z" fill="#CE171E"/>
<path d="M624.251 24H672.26V0H624.251V24Z" fill="#FFD400"/>
<path d="M688.075 24H704.059V0H688.075V24Z" fill="white"/>
<path d="M464.113 24H480.228V0H464.113V24Z" fill="white"/>
<path d="M111.888 24H127.909V0H111.888V24Z" fill="white"/>
<path d="M736.084 24H816.151V0H736.084V24Z" fill="#CE171E"/>
<path d="M704.059 24H736.084V0H704.059V24Z" fill="#741472"/>
<path d="M864.16 24H912.224V0H864.16V24Z" fill="#F15B5B"/>
<path d="M912.224 24H944.341V0H912.224V24Z" fill="#FFD400"/>
<path d="M992.256 24H1024V0H992.256V24Z" fill="#CE171E"/>
<path d="M47.9326 24H63.9345V0H47.9326V24Z" fill="#741472"/>
<path d="M448.111 24H464.17V0H448.111V24Z" fill="#741472"/>
<path d="M672.184 24H688.206V0H672.184V24Z" fill="#CFD4D8"/>
</svg>
