<svg width="552" height="100" viewBox="0 0 552 100" fill="none" xmlns="http://www.w3.org/2000/svg">
<path d="M550.076 95.688L549.864 96.4939C550.076 95.688 550.076 95.6879 550.076 95.688L550.079 95.6887L550.082 95.6895L550.089 95.6914L550.106 95.6963L550.129 95.7032L550.154 95.7111C550.172 95.7169 550.192 95.7239 550.215 95.7321C550.24 95.741 550.268 95.7514 550.297 95.7633C550.409 95.8083 550.563 95.8807 550.723 95.9902C551.037 96.2048 551.476 96.642 551.476 97.3536C551.476 97.3853 551.477 97.4006 551.48 97.4312C551.483 97.4612 551.488 97.5068 551.494 97.5952C551.503 97.7257 551.51 97.9323 551.453 98.1618C551.318 98.7037 550.914 99.0716 550.347 99.3139C549.811 99.5434 549.029 99.7079 547.905 99.8203C546.767 99.9343 545.216 100 543.105 100C531.535 100 523.232 94.2131 516.761 86.6167C511.702 80.6767 507.704 73.5535 504.119 67.1663L504.115 67.1596C503.142 65.4255 502.199 63.7458 501.273 62.1587C499.614 59.4852 498.016 58.0541 496.695 57.2152C495.716 56.5934 494.923 56.3028 494.23 56.0495C493.968 55.9535 493.72 55.8627 493.483 55.7614C492.902 55.5687 492.273 55.2859 491.779 54.8248C491.245 54.3275 490.897 53.6486 490.897 52.7756C490.897 52.0925 491.149 51.5265 491.627 51.1575C492.068 50.8174 492.596 50.7274 493.016 50.7274C493.321 50.7274 493.511 50.7488 493.702 50.7898L493.766 50.8042C493.8 50.8118 493.827 50.8186 493.853 50.8248C493.929 50.8432 493.988 50.8576 494.116 50.8774C494.497 50.9367 495.337 51.0077 497.637 51.0077C510.206 51.0077 517.784 41.0124 517.627 30.3962C517.503 22.4683 514.604 16.4919 509.999 12.4879C505.379 8.47173 498.969 6.37678 491.729 6.37678C490.697 6.37678 489.786 6.37724 488.982 6.43727C488.176 6.49748 487.539 6.61427 487.049 6.81637C486.578 7.01053 486.253 7.27777 486.032 7.65849C485.801 8.05489 485.639 8.64827 485.639 9.56202V77.373C485.639 82.1271 486.468 85.1567 487.63 87.1223C488.777 89.0643 490.292 90.04 491.836 90.6092C492.618 90.8976 493.411 91.0826 494.182 91.2324C494.456 91.2857 494.74 91.3365 495.022 91.3869L495.024 91.3874C495.498 91.472 495.965 91.5557 496.368 91.6476C497.017 91.7959 497.696 92.0033 498.217 92.403C498.798 92.8491 499.122 93.4866 499.122 94.307C499.122 94.6162 499.08 94.9812 498.901 95.3379C498.715 95.708 498.417 95.9975 498.024 96.2103C497.296 96.605 496.182 96.7665 494.575 96.7665C492.65 96.7665 491.189 96.6598 489.563 96.541L489.548 96.5399C489.296 96.5214 489.039 96.5027 488.776 96.484C486.815 96.3448 484.456 96.2057 480.675 96.2057C477.684 96.2057 475.14 96.3446 472.868 96.4845C472.597 96.5012 472.33 96.518 472.065 96.5345C470.123 96.656 468.357 96.7665 466.685 96.7665C466.17 96.7665 465.498 96.6384 464.925 96.2849C464.319 95.9105 463.805 95.2597 463.805 94.307C463.805 93.6277 464.053 93.0784 464.492 92.6581C464.892 92.2745 465.415 92.0339 465.908 91.8486C466.227 91.7288 466.598 91.6105 466.968 91.4925C467.162 91.4309 467.355 91.3693 467.54 91.3077C468.109 91.1182 468.69 90.9028 469.261 90.6113C470.387 90.0371 471.499 89.1579 472.343 87.5703C473.197 85.9648 473.808 83.5756 473.808 79.9336V15.6179C473.808 11.6611 473.158 9.33224 472.291 7.94714C471.45 6.60607 470.354 6.06775 469.199 5.81561C468.605 5.68601 468 5.63339 467.389 5.59374L467.278 5.58665L467.094 5.57532C466.595 5.54489 466.077 5.51321 465.621 5.43741C465.075 5.34662 464.465 5.17206 463.996 4.73278C463.494 4.26261 463.28 3.61391 463.28 2.85195C463.28 1.53596 464.102 0 465.779 0C466.133 0 466.782 0.0471306 467.68 0.112387C468.335 0.159912 469.122 0.21705 470.023 0.272592C472.21 0.407295 475.178 0.542037 478.881 0.542037C482.07 0.542037 484.169 0.40795 486.253 0.272757L486.318 0.268523C488.388 0.13421 490.456 0 493.542 0C501.774 0 510.549 1.48692 517.295 5.57587C524.095 9.69735 528.787 16.4414 528.787 26.7577C528.787 29.0286 528.139 34.172 525.57 39.5381C522.993 44.922 518.463 50.565 510.689 53.7163L510.614 53.7465L510.581 53.753C510.577 53.7563 510.572 53.7611 510.567 53.7692C510.563 53.7754 510.524 53.835 510.528 54.0038C510.533 54.1798 510.584 54.4707 510.77 54.9112C513.67 60.7017 521.142 73.0988 530.019 82.8102C535.446 88.7418 542.544 94.2306 550.022 95.6756L550.049 95.6809L550.076 95.688Z" fill="#464646"/>
<path d="M304.016 7.51943H315.907V88.3328H304.016V7.51943Z" fill="#464646"/>
<path fill-rule="evenodd" clip-rule="evenodd" d="M398.528 33.4422C402.996 30.8758 408.005 29.5994 413.535 29.5994C419.062 29.5994 424.003 30.8747 428.334 33.4451C432.73 35.9414 436.141 39.4687 438.556 44.0101C441.045 48.556 442.278 53.7445 442.278 59.5528C442.278 60.379 442.204 61.4444 442.06 62.7381L441.978 63.4794H396.392C397.144 67.8195 399.162 71.3299 402.447 74.0518C406.041 76.9007 410.5 78.3461 415.879 78.3461C422.417 78.3461 427.616 76.1514 431.561 71.7932L432.196 71.0916L438.919 78.9668L438.456 79.5084C435.809 82.6005 432.503 84.9517 428.553 86.5633C424.674 88.175 420.339 88.9728 415.559 88.9728C409.479 88.9728 404.052 87.7398 399.3 85.2512L399.291 85.2465C394.544 82.6869 390.843 79.1307 388.207 74.5845L388.202 74.5758C385.639 70.0302 384.366 64.9089 384.366 59.2328C384.366 53.6299 385.602 48.5478 388.09 44.0054L388.095 43.9964C390.652 39.4609 394.132 35.937 398.528 33.4422ZM401.736 44.1708C398.843 46.8166 397.052 50.2288 396.38 54.4528H430.687C430.01 50.3037 428.188 46.9268 425.231 44.2808L425.217 44.2684C422.12 41.3692 418.246 39.9061 413.535 39.9061C408.82 39.9061 404.905 41.3362 401.736 44.1708Z" fill="#464646"/>
<path d="M322.356 30.1328H334.831L353.679 74.2019L372.941 30.1328H384.772L359.328 88.3328H347.8L322.356 30.1328Z" fill="#464646"/>
<path fill-rule="evenodd" clip-rule="evenodd" d="M253.035 33.4422C257.503 30.8758 262.512 29.5994 268.042 29.5994C273.569 29.5994 278.511 30.8747 282.841 33.4451C287.237 35.9413 290.648 39.4686 293.063 44.0096C295.552 48.5557 296.785 53.7443 296.785 59.5527C296.785 60.3789 296.711 61.4443 296.567 62.7381L296.485 63.4794H250.899C251.651 67.8194 253.67 71.3298 256.954 74.0517C260.548 76.9006 265.007 78.3461 270.386 78.3461C276.924 78.3461 282.123 76.1514 286.068 71.7931L286.703 71.0916L293.426 78.9668L292.963 79.5084C290.316 82.6004 287.01 84.9515 283.06 86.5632C279.182 88.175 274.846 88.9727 270.066 88.9727C263.986 88.9727 258.559 87.7398 253.807 85.2512L253.798 85.2465C249.051 82.6869 245.35 79.1307 242.714 74.5845L242.709 74.5758C240.146 70.0302 238.873 64.9089 238.873 59.2327C238.873 53.6299 240.109 48.5478 242.597 44.0054L242.602 43.9964C245.159 39.4609 248.639 35.937 253.035 33.4422ZM256.242 44.1712C253.35 46.8169 251.559 50.229 250.887 54.4527H285.194C284.517 50.3036 282.696 46.9268 279.738 44.2808L279.725 44.2683C276.627 41.3692 272.753 39.9061 268.042 39.9061C263.327 39.9061 259.412 41.3363 256.242 44.1712Z" fill="#464646"/>
<path d="M108.904 30.1328H121.379L140.227 74.2019L159.489 30.1328H171.32L145.876 88.3328H134.348L108.904 30.1328Z" fill="#464646"/>
<path d="M177.161 30.1328H189.053V62.3261C189.053 67.6759 190.336 71.5996 192.77 74.2365C195.199 76.7975 198.716 78.1328 203.454 78.1328C208.672 78.1328 212.699 76.5587 215.637 73.4834C218.571 70.4118 220.093 66.0221 220.093 60.1927V30.1328H231.985V88.3328H220.626V81.3478C218.711 83.4901 216.371 85.2222 213.615 86.5443L213.608 86.5475C210.151 88.1677 206.372 88.9727 202.283 88.9727C194.599 88.9727 188.443 86.864 183.919 82.5567L183.913 82.5517C179.369 78.151 177.161 71.7516 177.161 63.4994V30.1328Z" fill="#464646"/>
<path fill-rule="evenodd" clip-rule="evenodd" d="M94.2845 46.1666C94.2845 42.2707 93.8393 38.5876 92.946 35.121C88.7164 14.8872 69.6204 3.9971 46.924 4.97259C40.7381 5.23846 37.1995 5.16711 32.8459 5.07933C30.3346 5.02869 27.5521 4.97259 23.834 4.97259C15.3964 4.97259 9.3582 4.54112 5.94115 4.29694C4.59289 4.2006 3.65246 4.1334 3.13402 4.1334C1.50207 4.1334 0.5 5.60921 0.5 7.25865C0.5 9.89877 2.47283 10.0239 5.0232 10.1857C9.25015 10.4539 15.0636 10.8227 16.1112 22.9089V86.8333H50.5005C59.011 86.8333 66.6036 85.1436 73.2535 81.7369C79.9009 78.3316 85.0624 73.5579 88.7101 67.4195C92.4341 61.2042 94.2845 54.11 94.2845 46.1666ZM73.5987 21.4099C74.9529 22.8339 76.1336 24.4118 77.1426 26.1439L77.1463 26.1502C78.3678 28.2119 79.3352 31.7153 79.9923 35.5347C80.6438 39.3214 80.9682 43.2817 80.9682 46.1666C80.9682 51.9038 79.6846 56.9381 77.1444 61.2997C74.6063 65.5823 70.9801 68.9292 66.2344 71.3416L66.2288 71.3445C61.5644 73.7527 56.1048 74.9733 49.8214 74.9733H29.5054V19.3139C29.5054 13.747 35.9784 13.8331 41.976 13.9128C42.6813 13.9222 43.38 13.9315 44.0609 13.9315C56.1652 13.9315 66.4457 15.9547 73.5987 21.4099Z" fill="#464646"/>
<path d="M102.961 6.88253H94.4303L95.3879 19.8602L102.779 28.1788L102.961 6.88253Z" fill="#464646"/>
</svg>
