<svg width="250" height="250" viewBox="0 0 250 250" fill="none" xmlns="http://www.w3.org/2000/svg">
<path d="M65.9178 69.6139H73.1054V84.5079C66.4115 83.78 66.0726 80.5459 65.9387 79.3285C65.7288 76.0939 65.7218 72.8494 65.9178 69.6139Z" fill="#666666"/>
<path d="M179.718 84.5079V69.6139H186.893C187.1 72.8627 187.1 76.1214 186.893 79.3703C186.738 80.5794 186.349 83.7758 179.718 84.5079Z" fill="#666666"/>
<path d="M167.253 242.85H85.1974C84.5539 242.906 83.9056 242.832 83.2916 242.631C82.6775 242.431 82.1104 242.108 81.6245 241.682C80.7636 240.654 80.2782 239.363 80.248 238.022V161.067H172.566V238.059C172.527 239.37 172.051 240.63 171.215 241.64C170.335 242.425 169.197 242.859 168.018 242.858C167.885 242.858 167.746 242.858 167.6 242.858L167.182 242.829L167.253 242.85Z" fill="white"/>
<path fill-rule="evenodd" clip-rule="evenodd" d="M141.622 233.207C141.622 234.036 142.294 234.707 143.122 234.707H155.866C158.076 234.707 159.866 232.916 159.866 230.707V220.402C159.866 219.574 159.195 218.902 158.366 218.902C157.538 218.902 156.866 219.574 156.866 220.402V230.707C156.866 231.26 156.419 231.707 155.866 231.707H143.122C142.294 231.707 141.622 232.379 141.622 233.207ZM141.622 170.451C141.622 171.28 142.294 171.951 143.122 171.951H155.866C156.419 171.951 156.866 172.399 156.866 172.951V185.695C156.866 186.524 157.538 187.195 158.366 187.195C159.195 187.195 159.866 186.524 159.866 185.695V172.951C159.866 170.742 158.076 168.951 155.866 168.951H143.122C142.294 168.951 141.622 169.623 141.622 170.451ZM108.415 168.951C109.244 168.951 109.915 169.623 109.915 170.451C109.915 171.28 109.244 171.951 108.415 171.951H98.1104C97.5581 171.951 97.1104 172.399 97.1104 172.951V185.695C97.1104 186.524 96.4388 187.195 95.6104 187.195C94.7819 187.195 94.1104 186.524 94.1104 185.695V172.951C94.1104 170.742 95.9012 168.951 98.1104 168.951H108.415ZM108.415 231.707C109.244 231.707 109.915 232.379 109.915 233.207C109.915 234.036 109.244 234.707 108.415 234.707H98.1104C95.9012 234.707 94.1104 232.916 94.1104 230.707V220.402C94.1104 219.574 94.7819 218.902 95.6104 218.902C96.4388 218.902 97.1104 219.574 97.1104 220.402V230.707C97.1104 231.26 97.5581 231.707 98.1104 231.707H108.415Z" fill="#4A0E63"/>
<path d="M117.385 177.219C117.385 176.667 116.938 176.219 116.385 176.219H102.379C101.827 176.219 101.379 176.667 101.379 177.219V191.226C101.379 191.778 101.827 192.226 102.379 192.226H116.385C116.938 192.226 117.385 191.778 117.385 191.226V177.219ZM114.184 188.024C114.184 188.577 113.737 189.024 113.184 189.024H105.581C105.028 189.024 104.581 188.577 104.581 188.024V180.421C104.581 179.868 105.028 179.421 105.581 179.421H113.184C113.737 179.421 114.184 179.868 114.184 180.421V188.024Z" fill="#4A0E63"/>
<path d="M109.983 182.622H108.782C108.229 182.622 107.782 183.07 107.782 183.622V184.823C107.782 185.375 108.229 185.823 108.782 185.823H109.983C110.535 185.823 110.983 185.375 110.983 184.823V183.622C110.983 183.07 110.535 182.622 109.983 182.622Z" fill="#4A0E63"/>
<path d="M137.592 176.219C137.04 176.219 136.592 176.667 136.592 177.219V191.226C136.592 191.778 137.04 192.226 137.592 192.226H151.598C152.151 192.226 152.598 191.778 152.598 191.226V177.219C152.598 176.667 152.151 176.219 151.598 176.219H137.592ZM149.397 188.024C149.397 188.577 148.949 189.024 148.397 189.024H140.794C140.241 189.024 139.794 188.577 139.794 188.024V180.421C139.794 179.868 140.241 179.421 140.794 179.421H148.397C148.949 179.421 149.397 179.868 149.397 180.421V188.024Z" fill="#4A0E63"/>
<path d="M145.196 182.622H143.995C143.443 182.622 142.995 183.07 142.995 183.622V184.823C142.995 185.375 143.443 185.823 143.995 185.823H145.196C145.749 185.823 146.196 185.375 146.196 184.823V183.622C146.196 183.07 145.749 182.622 145.196 182.622Z" fill="#4A0E63"/>
<path d="M101.379 226.439C101.379 226.991 101.827 227.439 102.379 227.439H116.385C116.937 227.439 117.385 226.991 117.385 226.439V212.433C117.385 211.881 116.937 211.433 116.385 211.433H102.379C101.827 211.433 101.379 211.881 101.379 212.433V226.439ZM104.58 215.634C104.58 215.082 105.028 214.634 105.58 214.634H113.184C113.736 214.634 114.184 215.082 114.184 215.634V223.238C114.184 223.79 113.736 224.238 113.184 224.238H105.58C105.028 224.238 104.58 223.79 104.58 223.238V215.634Z" fill="#4A0E63"/>
<path d="M109.983 217.835H108.782C108.229 217.835 107.782 218.283 107.782 218.835V220.037C107.782 220.589 108.229 221.037 108.782 221.037H109.983C110.535 221.037 110.983 220.589 110.983 220.037V218.835C110.983 218.283 110.535 217.835 109.983 217.835Z" fill="#4A0E63"/>
<path d="M132.391 176.219H127.989C127.436 176.219 126.989 176.667 126.989 177.219V178.421C126.989 178.973 127.436 179.421 127.989 179.421H132.391C132.943 179.421 133.391 178.973 133.391 178.421V177.219C133.391 176.667 132.943 176.219 132.391 176.219Z" fill="#4A0E63"/>
<path d="M126.989 188.024C126.989 188.577 127.437 189.024 127.989 189.024H129.19C129.742 189.024 130.19 188.577 130.19 188.024V186.823C130.19 186.271 130.638 185.823 131.19 185.823H132.391C132.944 185.823 133.391 185.375 133.391 184.823V183.622C133.391 183.07 132.944 182.622 132.391 182.622H124.788C124.235 182.622 123.788 182.174 123.788 181.622V180.421C123.788 179.868 123.34 179.421 122.788 179.421H121.586C121.034 179.421 120.586 179.868 120.586 180.421V182.622V184.223V184.823C120.586 185.375 121.034 185.823 121.586 185.823H125.989C126.541 185.823 126.989 186.271 126.989 186.823V188.024Z" fill="#4A0E63"/>
<path d="M122.788 189.024H121.586C121.034 189.024 120.586 189.472 120.586 190.024V191.226C120.586 191.778 121.034 192.226 121.586 192.226H122.788C123.34 192.226 123.788 191.778 123.788 191.226V190.024C123.788 189.472 123.34 189.024 122.788 189.024Z" fill="#4A0E63"/>
<path d="M133.391 193.226C133.391 192.673 132.944 192.226 132.391 192.226H131.19C130.638 192.226 130.19 192.673 130.19 193.226V194.427C130.19 194.979 129.742 195.427 129.19 195.427H121.586C121.034 195.427 120.586 195.874 120.586 196.427V197.628C120.586 198.18 121.034 198.628 121.586 198.628H132.391C132.944 198.628 133.391 198.18 133.391 197.628V193.226Z" fill="#4A0E63"/>
<path d="M104.58 206.03C104.58 205.478 105.028 205.03 105.58 205.03H106.781C107.334 205.03 107.781 204.583 107.781 204.03V202.829C107.781 202.277 107.334 201.829 106.781 201.829H105.58C105.028 201.829 104.58 201.381 104.58 200.829V196.427C104.58 195.874 104.132 195.427 103.58 195.427H102.379C101.827 195.427 101.379 195.874 101.379 196.427V207.232C101.379 207.784 101.827 208.232 102.379 208.232H103.58C104.132 208.232 104.58 207.784 104.58 207.232V206.03Z" fill="#4A0E63"/>
<path d="M109.983 195.427H108.782C108.229 195.427 107.782 195.874 107.782 196.427V197.628C107.782 198.18 108.229 198.628 108.782 198.628H109.983C110.535 198.628 110.983 198.18 110.983 197.628V196.427C110.983 195.874 110.535 195.427 109.983 195.427Z" fill="#4A0E63"/>
<path d="M120.587 207.232C120.587 207.784 121.034 208.232 121.587 208.232H125.989C126.541 208.232 126.989 207.784 126.989 207.232V206.03C126.989 205.478 126.541 205.03 125.989 205.03H124.788C124.236 205.03 123.788 204.583 123.788 204.03V202.829C123.788 202.277 123.34 201.829 122.788 201.829H118.385C117.833 201.829 117.385 201.381 117.385 200.829V196.427C117.385 195.874 116.938 195.427 116.385 195.427H115.184C114.632 195.427 114.184 195.874 114.184 196.427V200.829C114.184 201.381 113.736 201.829 113.184 201.829H111.983C111.431 201.829 110.983 202.277 110.983 202.829V207.232C110.983 207.784 111.431 208.232 111.983 208.232H113.184C113.736 208.232 114.184 207.784 114.184 207.232V206.03C114.184 205.478 114.632 205.03 115.184 205.03H115.785H117.385H119.587C120.139 205.03 120.587 205.478 120.587 206.03V207.232Z" fill="#4A0E63"/>
<path d="M132.392 201.829H131.19C130.638 201.829 130.19 202.277 130.19 202.829V207.232C130.19 207.784 130.638 208.232 131.19 208.232H132.392C132.944 208.232 133.392 207.784 133.392 207.232V202.829C133.392 202.277 132.944 201.829 132.392 201.829Z" fill="#4A0E63"/>
<path d="M130.19 212.433C130.19 211.881 129.742 211.433 129.19 211.433H121.586C121.034 211.433 120.586 211.881 120.586 212.433V213.634C120.586 214.186 121.034 214.634 121.586 214.634H125.989C126.541 214.634 126.989 215.082 126.989 215.634V223.238C126.989 223.79 126.541 224.238 125.989 224.238H121.586C121.034 224.238 120.586 224.685 120.586 225.238V226.439C120.586 226.991 121.034 227.439 121.586 227.439H129.19C129.742 227.439 130.19 226.991 130.19 226.439V225.238C130.19 224.685 130.638 224.238 131.19 224.238H135.593C136.145 224.238 136.593 223.79 136.593 223.238V222.037C136.593 221.484 136.145 221.037 135.593 221.037H131.19C130.638 221.037 130.19 220.589 130.19 220.037V212.433Z" fill="#4A0E63"/>
<path d="M122.788 217.835H121.586C121.034 217.835 120.586 218.283 120.586 218.835V220.037C120.586 220.589 121.034 221.037 121.586 221.037H122.788C123.34 221.037 123.788 220.589 123.788 220.037V218.835C123.788 218.283 123.34 217.835 122.788 217.835Z" fill="#4A0E63"/>
<path d="M135.592 211.433H134.391C133.839 211.433 133.391 211.881 133.391 212.433V216.835C133.391 217.388 133.839 217.835 134.391 217.835H135.592C136.145 217.835 136.592 217.388 136.592 216.835V212.433C136.592 211.881 136.145 211.433 135.592 211.433Z" fill="#4A0E63"/>
<path d="M149.397 218.835C149.397 218.283 148.949 217.835 148.397 217.835H140.793C140.241 217.835 139.793 218.283 139.793 218.835V226.439C139.793 226.991 140.241 227.439 140.793 227.439H141.995C142.547 227.439 142.995 226.991 142.995 226.439V222.037C142.995 221.484 143.442 221.037 143.995 221.037H148.397C148.949 221.037 149.397 220.589 149.397 220.037V218.835Z" fill="#4A0E63"/>
<path d="M151.599 224.238H147.196C146.644 224.238 146.196 224.686 146.196 225.238V226.439C146.196 226.991 146.644 227.439 147.196 227.439H151.599C152.151 227.439 152.599 226.991 152.599 226.439V225.238C152.599 224.686 152.151 224.238 151.599 224.238Z" fill="#4A0E63"/>
<path d="M151.598 211.433H150.397C149.845 211.433 149.397 211.881 149.397 212.433V213.634C149.397 214.186 149.845 214.634 150.397 214.634H151.598C152.15 214.634 152.598 214.186 152.598 213.634V212.433C152.598 211.881 152.15 211.433 151.598 211.433Z" fill="#4A0E63"/>
<path d="M139.793 213.634C139.793 214.186 140.241 214.634 140.793 214.634H141.995C142.547 214.634 142.995 214.186 142.995 213.634V206.03C142.995 205.478 142.547 205.03 141.995 205.03H137.592C137.04 205.03 136.592 205.478 136.592 206.03V207.232C136.592 207.784 137.04 208.232 137.592 208.232H138.793C139.346 208.232 139.793 208.679 139.793 209.232V213.634Z" fill="#4A0E63"/>
<path d="M146.196 197.628C146.196 198.18 145.748 198.628 145.196 198.628H143.995C143.442 198.628 142.995 198.18 142.995 197.628V196.427C142.995 195.874 142.547 195.427 141.995 195.427H140.794C140.241 195.427 139.794 195.874 139.794 196.427V197.628C139.794 198.18 139.346 198.628 138.794 198.628H137.592C137.04 198.628 136.592 199.076 136.592 199.628V200.829C136.592 201.381 137.04 201.829 137.592 201.829H148.397C148.949 201.829 149.397 201.381 149.397 200.829V199.628C149.397 199.076 149.845 198.628 150.397 198.628H151.598C152.151 198.628 152.598 198.18 152.598 197.628V196.427C152.598 195.874 152.151 195.427 151.598 195.427H147.196C146.644 195.427 146.196 195.874 146.196 196.427V197.628Z" fill="#4A0E63"/>
<path d="M151.599 205.03H147.196C146.644 205.03 146.196 205.478 146.196 206.03V207.232C146.196 207.784 146.644 208.232 147.196 208.232H151.599C152.151 208.232 152.599 207.784 152.599 207.232V206.03C152.599 205.478 152.151 205.03 151.599 205.03Z" fill="#4A0E63"/>
<path d="M179.712 161.069H190.645C191.11 161.072 191.571 160.983 192.002 160.807C192.433 160.631 192.824 160.372 193.155 160.044C193.829 159.382 194.213 158.479 194.222 157.534C194.228 156.588 193.859 155.678 193.196 155.004C192.532 154.331 191.628 153.948 190.682 153.94H62.6141C61.6749 153.937 60.7727 154.306 60.1039 154.965C59.7702 155.293 59.5045 155.683 59.3222 156.114C59.1398 156.545 59.0443 157.007 59.0412 157.475C59.0392 157.941 59.1291 158.402 59.3057 158.833C59.4824 159.264 59.7422 159.655 60.0704 159.986C60.3978 160.32 60.7881 160.587 61.2189 160.77C61.6497 160.953 62.1125 161.049 62.5806 161.052H73.1153V171.047H51.6318C48.7766 171.04 46.0402 169.903 44.0197 167.886C41.9991 165.868 40.8583 163.134 40.8462 160.278V80.4403C40.8539 77.5822 41.9927 74.8432 44.0138 72.8222C46.0348 70.8012 48.7737 69.6624 51.6318 69.6547H58.7944C58.5895 73.1599 58.6146 76.6748 58.8697 80.1767C59.7064 87.7074 65.8147 91.8912 76.0606 91.8912H176.771C187.046 91.8912 193.155 87.7325 193.975 80.1767C194.203 76.6856 194.203 73.1834 193.975 69.6923H199.238C202.096 69.6979 204.835 70.8354 206.857 72.856C208.878 74.8766 210.017 77.6157 210.023 80.4738V160.278C210.019 163.139 208.882 165.881 206.86 167.904C204.839 169.928 202.098 171.069 199.238 171.077H179.662L179.712 161.069Z" fill="#D9D9D9"/>
<path d="M65.1873 98.9561C62.2131 98.9605 59.362 100.144 57.2594 102.248C55.1567 104.351 53.974 107.203 53.9707 110.177C53.974 113.151 55.1567 116.003 57.2594 118.106C59.362 120.209 62.2131 121.393 65.1873 121.398C68.1629 121.395 71.0161 120.213 73.1206 118.109C75.2251 116.005 76.4089 113.153 76.4122 110.177C76.4045 107.203 75.2192 104.352 73.1157 102.25C71.0122 100.147 68.1615 98.9627 65.1873 98.9561ZM69.2748 110.177C69.2726 111.26 68.8411 112.298 68.0749 113.063C67.3087 113.829 66.2703 114.259 65.1873 114.26C64.105 114.259 63.0675 113.828 62.3026 113.063C61.5378 112.297 61.1081 111.259 61.1081 110.177C61.1081 109.095 61.5378 108.057 62.3026 107.291C63.0675 106.525 64.105 106.095 65.1873 106.094C66.2703 106.095 67.3087 106.525 68.0749 107.29C68.8411 108.056 69.2726 109.094 69.2748 110.177Z" fill="#4A0E63"/>
<path d="M199.271 62.4742H179.699V50.0025C179.671 47.1714 178.576 44.4552 176.633 42.3965C174.37 40.2366 171.364 39.0292 168.236 39.0244C168.023 39.0244 167.818 39.0244 167.604 39.0244H85.21C85.0008 39.0244 84.7916 39.0244 84.5741 39.0244C81.443 39.0299 78.4338 40.2387 76.169 42.4006C74.2325 44.4333 73.1382 47.1242 73.1065 49.9314V62.4825H51.6189C46.8708 62.5002 42.3222 64.3942 38.9648 67.7516C35.6074 71.109 33.7134 75.6575 33.6958 80.4056V160.244C33.7123 164.992 35.6058 169.542 38.9634 172.9C42.3209 176.259 46.8701 178.153 51.6189 178.171H73.1065V237.963C73.1229 241.182 74.3352 244.279 76.5079 246.653C78.7003 248.79 81.638 249.99 84.6996 250C84.8628 250 85.0259 250 85.1933 250H167.583C167.755 250 167.922 250 168.09 250C171.154 249.993 174.096 248.793 176.29 246.653C178.46 244.303 179.67 241.225 179.683 238.026V178.167H199.258C204.007 178.149 208.556 176.255 211.914 172.896C215.271 169.538 217.165 164.988 217.181 160.239V80.368C217.156 75.6272 215.26 71.088 211.907 67.7372C208.553 64.3865 204.012 62.4951 199.271 62.4742ZM167.249 242.85H85.1933C84.5498 242.907 83.9015 242.832 83.2874 242.632C82.6734 242.431 82.1063 242.108 81.6204 241.683C80.7595 240.654 80.2741 239.363 80.2439 238.022V161.068H172.562V238.06C172.523 239.371 172.047 240.631 171.211 241.641C170.331 242.426 169.193 242.859 168.014 242.858C167.88 242.858 167.742 242.858 167.596 242.858L167.178 242.829L167.249 242.85ZM65.9189 69.6117H73.1065V84.5057C66.4125 83.7777 66.0737 80.5437 65.9398 79.3262C65.7299 76.0916 65.7229 72.8471 65.9189 69.6117ZM81.1769 47.4756C81.7248 47.0004 82.3628 46.6407 83.0529 46.4178C83.743 46.195 84.471 46.1136 85.1933 46.1785H167.613C172.248 46.1785 172.608 49.0151 172.608 49.8853V84.6103H80.2858V49.8477C80.2693 49.4129 80.3397 48.9793 80.4927 48.572C80.6457 48.1647 80.8783 47.792 81.1769 47.4756ZM179.712 84.5057V69.6117H186.887C187.094 72.8605 187.094 76.1192 186.887 79.368C186.732 80.5771 186.343 83.7736 179.712 84.5057ZM179.712 161.068H190.644C191.109 161.071 191.571 160.981 192.001 160.806C192.432 160.63 192.824 160.37 193.154 160.043C193.829 159.381 194.212 158.478 194.221 157.533C194.228 156.587 193.859 155.677 193.195 155.003C192.532 154.329 191.627 153.947 190.682 153.939H62.6137C61.6745 153.936 60.7723 154.304 60.1035 154.964C59.7698 155.292 59.5041 155.682 59.3218 156.113C59.1394 156.544 59.0439 157.006 59.0408 157.474C59.0388 157.94 59.1287 158.401 59.3053 158.832C59.4819 159.262 59.7418 159.654 60.07 159.984C60.3973 160.319 60.7877 160.585 61.2185 160.769C61.6493 160.952 62.1121 161.048 62.5802 161.051H73.1149V171.046H51.6314C48.7762 171.038 46.0398 169.902 44.0192 167.884C41.9987 165.867 40.8579 163.132 40.8458 160.277V80.4391C40.8535 77.581 41.9923 74.842 44.0134 72.821C46.0344 70.8 48.7733 69.6612 51.6314 69.6535H58.794C58.5891 73.1587 58.6142 76.6736 58.8693 80.1755C59.706 87.7062 65.8143 91.89 76.0602 91.89H176.771C187.046 91.89 193.154 87.7313 193.974 80.1755C194.202 76.6844 194.202 73.1822 193.974 69.6911H199.237C202.096 69.6967 204.835 70.8342 206.856 72.8548C208.878 74.8754 210.016 77.6145 210.023 80.4726V160.277C210.019 163.137 208.881 165.88 206.86 167.903C204.839 169.927 202.098 171.068 199.237 171.075H179.662L179.712 161.068Z" fill="#4A0E63"/>
<path d="M69.2775 110.178C69.2753 111.261 68.8438 112.299 68.0776 113.065C67.3114 113.83 66.273 114.26 65.19 114.262C64.1077 114.26 63.0702 113.83 62.3053 113.064C61.5405 112.298 61.1108 111.26 61.1108 110.178C61.1108 109.096 61.5405 108.058 62.3053 107.292C63.0702 106.527 64.1077 106.096 65.19 106.095C66.273 106.096 67.3114 106.526 68.0776 107.292C68.8438 108.057 69.2753 109.095 69.2775 110.178Z" fill="#FD5F6F"/>
<g style="mix-blend-mode:multiply">
<g style="mix-blend-mode:multiply" opacity="0.2">
<path d="M193.666 81.6255C192.231 88.219 186.336 91.8673 176.768 91.8673H176.526L72.5977 153.933H190.667C191.612 153.941 192.516 154.323 193.18 154.997C193.844 155.671 194.213 156.581 194.206 157.527C194.197 158.472 193.814 159.375 193.139 160.037C192.809 160.365 192.417 160.624 191.986 160.8C191.555 160.976 191.094 161.065 190.629 161.062H179.709L179.659 171.082H199.235C202.095 171.074 204.836 169.934 206.857 167.91C208.879 165.886 210.016 163.144 210.021 160.284V80.4415C210.008 77.8651 209.066 75.3797 207.368 73.4421L193.666 81.6255Z" fill="black"/>
</g>
<g style="mix-blend-mode:multiply">
<path d="M61.1729 160.757L46.3374 169.614C47.9442 170.552 49.7691 171.052 51.6298 171.065H73.1174V161.07H62.5828C62.0964 161.062 61.6168 160.955 61.1729 160.757Z" fill="#F1F1F1"/>
</g>
</g>
<path d="M81.1825 47.4767C81.7304 47.0016 82.3685 46.6418 83.0586 46.419C83.7487 46.1961 84.4766 46.1147 85.1989 46.1797H167.618C172.254 46.1797 172.614 49.0163 172.614 49.8865V84.6114H80.2914V49.8488C80.275 49.4141 80.3453 48.9804 80.4983 48.5731C80.6513 48.1659 80.8839 47.7931 81.1825 47.4767Z" fill="white"/>
<path fill-rule="evenodd" clip-rule="evenodd" d="M162.964 35.9756C162.964 55.8444 146.858 71.9512 126.989 71.9512C107.12 71.9512 91.0132 55.8444 91.0132 35.9756C91.0132 16.1068 107.12 0 126.989 0C146.858 0 162.964 16.1068 162.964 35.9756ZM157.662 35.9756C157.662 52.9158 143.929 66.6486 126.989 66.6486C110.049 66.6486 96.3158 52.9158 96.3158 35.9756C96.3158 19.0354 110.049 5.30264 126.989 5.30264C143.929 5.30264 157.662 19.0354 157.662 35.9756Z" fill="#4A0E63"/>
<path d="M126.989 66.6486C143.929 66.6486 157.662 52.9158 157.662 35.9756C157.662 19.0354 143.929 5.30267 126.989 5.30267C110.049 5.30267 96.3159 19.0354 96.3159 35.9756C96.3159 52.9158 110.049 66.6486 126.989 66.6486Z" fill="#66B583"/>
<g style="mix-blend-mode:multiply" opacity="0.7">
<path d="M144.845 11.0873C148.602 16.2819 150.626 22.5296 150.626 28.9409C150.616 37.0727 147.381 44.8684 141.631 50.6184C135.881 56.3684 128.085 59.6034 119.953 59.6138C113.54 59.6133 107.291 57.589 102.096 53.8293C104.926 57.7934 108.66 61.0255 112.989 63.2573C117.319 65.4891 122.117 66.6562 126.988 66.6618C135.121 66.6523 142.918 63.4172 148.669 57.6664C154.42 51.9156 157.655 44.1185 157.664 35.9856C157.661 31.1151 156.496 26.3156 154.267 21.9854C152.037 17.6552 148.807 13.9191 144.845 11.0873Z" fill="#66B583"/>
</g>
<path d="M122.473 52.6317C122.094 52.632 121.718 52.5552 121.37 52.4058C121.022 52.2565 120.707 52.0378 120.446 51.763L110.246 41.066C109.735 40.5296 109.458 39.8124 109.476 39.072C109.494 38.3316 109.805 37.6286 110.341 37.1175C110.606 36.8638 110.919 36.665 111.261 36.5324C111.603 36.3999 111.968 36.3362 112.335 36.345C112.702 36.3539 113.064 36.4352 113.399 36.5841C113.734 36.733 114.037 36.9467 114.29 37.2129L122.114 45.4225L139.385 20.5307C139.595 20.2289 139.861 19.9712 140.17 19.7724C140.479 19.5737 140.824 19.4378 141.186 19.3724C141.547 19.307 141.918 19.3134 142.277 19.3914C142.636 19.4693 142.976 19.6172 143.278 19.8266C143.58 20.0356 143.837 20.302 144.036 20.6106C144.235 20.9193 144.371 21.264 144.436 21.6252C144.501 21.9864 144.495 22.357 144.417 22.7157C144.339 23.0744 144.191 23.4143 143.982 23.7158L124.756 51.4307C124.52 51.7722 124.21 52.0569 123.85 52.264C123.489 52.4711 123.088 52.5956 122.673 52.6284C122.618 52.6317 122.548 52.6317 122.473 52.6317Z" fill="white"/>
</svg>
