<svg width="176" height="176" viewBox="0 0 176 176" fill="none" xmlns="http://www.w3.org/2000/svg">
<path d="M31.0008 33.3286H37.621V47.0468C31.4555 46.3763 31.1434 43.3976 31.0201 42.2762C30.8268 39.297 30.8203 36.3086 31.0008 33.3286Z" fill="#666666"/>
<path d="M135.816 47.0468V33.3286H142.425C142.616 36.321 142.616 39.3224 142.425 42.3148C142.282 43.4284 141.924 46.3725 135.816 47.0468Z" fill="#666666"/>
<path d="M124.335 142.888H48.7578C48.1651 142.94 47.568 142.871 47.0025 142.687C46.4369 142.502 45.9146 142.205 45.467 141.813C44.6741 140.865 44.227 139.676 44.1992 138.441V117.562H129.229V138.475C129.193 139.683 128.755 140.844 127.984 141.774C127.174 142.497 126.126 142.896 125.04 142.895C124.917 142.895 124.79 142.895 124.655 142.895L124.27 142.868L124.335 142.888Z" fill="white"/>
<path d="M135.811 117.564H145.88C146.309 117.566 146.734 117.484 147.131 117.322C147.527 117.16 147.888 116.921 148.192 116.62C148.814 116.01 149.167 115.178 149.175 114.308C149.181 113.436 148.841 112.599 148.23 111.978C147.619 111.357 146.786 111.005 145.915 110.997H27.9576C27.0926 110.995 26.2616 111.334 25.6456 111.942C25.3382 112.243 25.0935 112.603 24.9256 113C24.7576 113.397 24.6696 113.823 24.6668 114.254C24.665 114.682 24.7478 115.107 24.9104 115.504C25.0731 115.901 25.3124 116.262 25.6147 116.566C25.9162 116.874 26.2757 117.119 26.6726 117.288C27.0694 117.457 27.4956 117.545 27.9268 117.548H37.6297V126.754H17.8424C15.2125 126.747 12.6922 125.7 10.8311 123.842C8.97009 121.984 7.91938 119.465 7.9082 116.835V43.3004C7.91532 40.6679 8.96424 38.1452 10.8257 36.2837C12.6872 34.4222 15.2098 33.3733 17.8424 33.3662H24.4394C24.2507 36.5947 24.2739 39.8321 24.5088 43.0576C25.2795 49.9938 30.9055 53.8472 40.3425 53.8472H133.102C142.566 53.8472 148.192 50.0169 148.948 43.0576C149.158 39.8421 149.158 36.6164 148.948 33.4009H153.795C156.428 33.406 158.951 34.4537 160.813 36.3148C162.675 38.1759 163.723 40.6987 163.729 43.3312V116.835C163.725 119.47 162.678 121.996 160.816 123.859C158.954 125.723 156.43 126.774 153.795 126.781H135.765L135.811 117.564Z" fill="#D9D9D9"/>
<path d="M30.3281 60.3542C27.5887 60.3583 24.9628 61.4486 23.0261 63.386C21.0894 65.3234 20.0001 67.9498 19.9971 70.6892C20.0001 73.4286 21.0894 76.0549 23.0261 77.9923C24.9628 79.9297 27.5887 81.02 30.3281 81.0241C33.0688 81.022 35.6968 79.9327 37.6351 77.995C39.5735 76.0574 40.6638 73.4299 40.6669 70.6892C40.6598 67.9497 39.5681 65.3245 37.6306 63.3878C35.6932 61.4511 33.0676 60.3604 30.3281 60.3542ZM34.0929 70.6892C34.0909 71.6867 33.6935 72.6427 32.9878 73.3476C32.2821 74.0526 31.3256 74.4491 30.3281 74.4501C29.3313 74.4491 28.3757 74.0524 27.6712 73.3472C26.9667 72.642 26.571 71.686 26.571 70.6892C26.571 69.6924 26.9667 68.7363 27.6712 68.0311C28.3757 67.3259 29.3313 66.9292 30.3281 66.9282C31.3256 66.9292 32.2821 67.3257 32.9878 68.0307C33.6935 68.7356 34.0909 69.6917 34.0929 70.6892Z" fill="#4A0E63"/>
<path d="M153.826 26.7525H135.799V15.2654C135.774 12.6579 134.765 10.1561 132.975 8.25992C130.891 6.27051 128.122 5.1585 125.241 5.15405C125.044 5.15405 124.856 5.15405 124.659 5.15405H48.7696C48.5769 5.15405 48.3842 5.15405 48.1839 5.15405C45.3 5.15915 42.5284 6.27245 40.4423 8.26374C38.6587 10.1359 37.6508 12.6143 37.6216 15.1999V26.7602H17.8304C13.4571 26.7765 9.26768 28.5209 6.17532 31.6133C3.08297 34.7057 1.33851 38.8951 1.32227 43.2683V116.803C1.33749 121.177 3.0815 125.368 6.17397 128.461C9.26644 131.554 13.4565 133.299 17.8304 133.315H37.6216V138.387C37.6367 141.352 38.7533 144.204 40.7544 146.391C42.7738 148.359 45.4796 149.465 48.2995 149.474C48.4497 149.474 48.6 149.474 48.7542 149.474H124.64C124.798 149.474 124.952 149.474 125.106 149.474C127.929 149.468 130.638 148.362 132.659 146.391C134.658 144.226 135.773 141.391 135.784 138.445V133.312H153.814C158.188 133.295 162.378 131.55 165.471 128.457C168.563 125.364 170.307 121.173 170.322 116.8V43.2337C170.299 38.8671 168.553 34.6863 165.464 31.6001C162.375 28.5139 158.192 26.7718 153.826 26.7525ZM124.332 142.888H48.7542C48.1615 142.94 47.5644 142.872 46.9988 142.687C46.4332 142.502 45.9109 142.205 45.4633 141.813C44.6704 140.866 44.2234 139.677 44.1956 138.441V117.563H129.225V138.476C129.189 139.683 128.751 140.844 127.981 141.775C127.171 142.498 126.123 142.897 125.037 142.896C124.913 142.896 124.786 142.896 124.651 142.896L124.266 142.869L124.332 142.888ZM31.0014 33.3265H37.6216V47.0447C31.4561 46.3742 31.144 43.3955 31.0207 42.2742C30.8274 39.2949 30.8209 36.3066 31.0014 33.3265ZM45.0549 12.938C45.5595 12.5004 46.1472 12.169 46.7828 11.9638C47.4184 11.7585 48.0889 11.6835 48.7542 11.7434H124.667C128.936 11.7434 129.268 14.356 129.268 15.1575V47.141H44.2341V15.1228C44.219 14.7224 44.2837 14.323 44.4247 13.9479C44.5656 13.5727 44.7798 13.2294 45.0549 12.938ZM135.811 47.0447V33.3265H142.42C142.61 36.3189 142.61 39.3203 142.42 42.3127C142.277 43.4263 141.919 46.3704 135.811 47.0447ZM135.811 117.563H145.88C146.308 117.565 146.733 117.483 147.13 117.321C147.527 117.159 147.888 116.92 148.192 116.618C148.813 116.008 149.167 115.177 149.175 114.306C149.181 113.435 148.841 112.597 148.23 111.977C147.618 111.356 146.786 111.003 145.915 110.996H27.9572C27.0922 110.994 26.2611 111.333 25.6451 111.94C25.3378 112.242 25.0931 112.602 24.9251 112.999C24.7572 113.396 24.6692 113.822 24.6664 114.252C24.6646 114.681 24.7473 115.106 24.91 115.503C25.0727 115.9 25.312 116.26 25.6143 116.565C25.9158 116.873 26.2753 117.118 26.6721 117.287C27.0689 117.455 27.4952 117.544 27.9264 117.547H37.6293V126.753H17.8419C15.2121 126.746 12.6917 125.699 10.8307 123.841C8.96967 121.983 7.91896 119.464 7.90778 116.834V43.2992C7.9149 40.6667 8.96382 38.144 10.8253 36.2825C12.6868 34.421 15.2094 33.3721 17.8419 33.365H24.439C24.2503 36.5935 24.2735 39.8309 24.5084 43.0564C25.2791 49.9926 30.9051 53.846 40.3421 53.846H133.102C142.566 53.846 148.192 50.0157 148.947 43.0564C149.157 39.8409 149.157 36.6152 148.947 33.3997H153.795C156.427 33.4048 158.951 34.4525 160.812 36.3136C162.674 38.1747 163.723 40.6975 163.729 43.33V116.834C163.725 119.469 162.677 121.994 160.816 123.858C158.954 125.722 156.429 126.773 153.795 126.78H135.765L135.811 117.563Z" fill="#4A0E63"/>
<path d="M34.0942 70.6904C34.0921 71.688 33.6947 72.6439 32.989 73.3489C32.2833 74.0539 31.3269 74.4504 30.3294 74.4514C29.3326 74.4504 28.3769 74.0536 27.6725 73.3484C26.968 72.6432 26.5723 71.6872 26.5723 70.6904C26.5723 69.6936 26.968 68.7376 27.6725 68.0324C28.3769 67.3272 29.3326 66.9305 30.3294 66.9294C31.3269 66.9305 32.2833 67.3269 32.989 68.0319C33.6947 68.7369 34.0921 69.6929 34.0942 70.6904Z" fill="#FD5F6F"/>
<g style="mix-blend-mode:multiply">
<g style="mix-blend-mode:multiply" opacity="0.2">
<path d="M148.664 44.3918C147.342 50.4648 141.913 53.825 133.1 53.825H132.876L37.1533 110.991H145.901C146.772 110.998 147.605 111.35 148.216 111.971C148.827 112.592 149.167 113.43 149.161 114.301C149.153 115.171 148.8 116.003 148.178 116.613C147.874 116.915 147.513 117.153 147.117 117.315C146.72 117.477 146.295 117.559 145.866 117.557H135.809L135.763 126.786H153.793C156.427 126.779 158.952 125.728 160.814 123.864C162.675 122 163.723 119.475 163.727 116.84V43.3013C163.716 40.9283 162.848 38.6391 161.284 36.8545L148.664 44.3918Z" fill="black"/>
</g>
<g style="mix-blend-mode:multiply">
<path d="M26.6301 117.276L12.9658 125.433C14.4458 126.298 16.1266 126.759 17.8404 126.771H37.6316V117.565H27.9287C27.4807 117.557 27.0389 117.459 26.6301 117.276Z" fill="#F1F1F1"/>
</g>
</g>
<path d="M45.0593 12.9392C45.5639 12.5016 46.1516 12.1702 46.7872 11.965C47.4228 11.7597 48.0933 11.6847 48.7586 11.7446H124.671C128.941 11.7446 129.272 14.3572 129.272 15.1587V47.1422H44.2385V15.124C44.2233 14.7236 44.2881 14.3242 44.4291 13.9491C44.57 13.5739 44.7842 13.2306 45.0593 12.9392Z" fill="white"/>
<g clip-path="url(#clip0_7923:176578)">
<path d="M118.404 55.6096L118.438 55.6098C122.375 55.6537 126.14 57.24 128.916 60.029C131.694 62.8183 133.26 66.5867 133.273 70.5205L133.274 70.531L133.274 151.72C133.274 152.917 132.562 153.999 131.464 154.474C130.365 154.948 129.089 154.725 128.218 153.905L123.12 149.109C122.982 148.985 122.8 148.915 122.61 148.915C122.419 148.916 122.237 148.987 122.099 149.113C122.097 149.115 122.095 149.117 122.093 149.118L117.95 153.04L117.944 153.045C116.795 154.127 115.276 154.727 113.7 154.727C112.124 154.727 110.605 154.127 109.456 153.045L109.453 153.043L105.28 149.104L105.273 149.098C105.143 148.974 104.967 148.903 104.783 148.903C104.599 148.903 104.423 148.974 104.293 149.098L104.288 149.102L100.121 153.041L100.113 153.049C98.9641 154.126 97.4483 154.725 95.8748 154.725C94.3013 154.725 92.7854 154.126 91.6369 153.049L91.6303 153.042L87.4633 149.109C87.4616 149.108 87.4599 149.106 87.4583 149.105C87.3217 148.98 87.1412 148.909 86.9521 148.909C86.7632 148.909 86.583 148.98 86.4465 149.104C86.4446 149.106 86.4428 149.108 86.441 149.109L82.2924 153.031C82.2913 153.032 82.2902 153.033 82.2891 153.034M118.404 55.6096L75.8576 150.854C76.447 151.413 77.2294 151.725 78.0429 151.725C78.8564 151.725 79.6388 151.413 80.2282 150.854L82.2891 153.034M118.404 55.6096H55.5291L55.4946 55.6098C51.5607 55.6551 47.8002 57.2396 45.0247 60.0246C42.249 62.81 40.681 66.5732 40.6621 70.5032L40.6621 70.5176V151.776C40.6621 152.978 41.3796 154.064 42.4854 154.535C43.5911 155.007 44.8715 154.773 45.739 153.941L50.8 149.085C50.9349 148.964 51.1119 148.895 51.2973 148.895C51.4853 148.895 51.6646 148.966 51.8001 149.09C51.8016 149.092 51.803 149.093 51.8044 149.094L55.9732 153.029L55.9766 153.032C57.1246 154.112 58.6417 154.713 60.2166 154.713C61.7915 154.713 63.3086 154.112 64.4567 153.032L64.4628 153.026L68.6177 149.095C68.6183 149.094 68.6188 149.094 68.6194 149.093C68.7537 148.967 68.9331 148.896 69.1214 148.896C69.3099 148.896 69.4895 148.968 69.624 149.094C69.6243 149.094 69.6246 149.094 69.625 149.095M118.404 55.6096L69.625 149.095M82.2891 153.034C81.1418 154.12 79.6216 154.725 78.0429 154.725C76.4636 154.725 74.943 154.12 73.7956 153.033C73.7948 153.032 73.7941 153.032 73.7934 153.031L69.625 149.095M82.2891 153.034L69.625 149.095" fill="white" stroke="#4A0E63" stroke-width="6" stroke-linejoin="round"/>
</g>
<path d="M170.092 158.557L144.163 111.388C143.649 110.456 142.881 109.688 141.949 109.174C141.299 108.812 140.584 108.582 139.844 108.498C139.105 108.414 138.356 108.478 137.641 108.685C136.923 108.888 136.253 109.231 135.669 109.695C135.084 110.159 134.598 110.734 134.238 111.388L108.309 158.554C107.849 159.393 107.607 160.335 107.605 161.293C107.607 162.798 108.206 164.241 109.271 165.306C110.335 166.371 111.778 166.969 113.284 166.971H165.159C166.111 166.97 167.047 166.729 167.882 166.271C168.536 165.912 169.113 165.427 169.579 164.844C170.045 164.261 170.391 163.591 170.598 162.874C170.802 162.157 170.863 161.406 170.776 160.665C170.689 159.924 170.457 159.208 170.092 158.557Z" fill="#FFCC00"/>
<path opacity="0.2" d="M170.089 158.557L144.16 111.388C143.645 110.456 142.878 109.688 141.946 109.174C141.296 108.812 140.58 108.582 139.841 108.498C139.102 108.414 138.353 108.478 137.638 108.685C136.332 109.062 135.207 109.9 134.472 111.045C134.549 111.164 134.66 111.262 134.731 111.388L160.654 158.557C161.014 159.21 161.241 159.927 161.323 160.668C161.404 161.409 161.339 162.159 161.13 162.874C160.924 163.591 160.577 164.261 160.111 164.844C159.645 165.427 159.068 165.912 158.414 166.271C157.58 166.729 156.644 166.97 155.692 166.971H165.124C166.075 166.97 167.012 166.729 167.846 166.271C168.5 165.912 169.077 165.427 169.543 164.844C170.009 164.261 170.356 163.591 170.562 162.874C170.771 162.159 170.837 161.409 170.756 160.668C170.675 159.928 170.448 159.21 170.089 158.557Z" fill="black"/>
<path d="M165.13 170.846H113.271C110.734 170.843 108.302 169.835 106.509 168.041C104.716 166.247 103.708 163.815 103.706 161.278C103.707 159.667 104.112 158.082 104.886 156.669L130.815 109.51C132.044 107.292 134.103 105.652 136.539 104.95C138.976 104.248 141.591 104.54 143.812 105.763C145.39 106.634 146.689 107.933 147.559 109.51L173.489 156.679C174.098 157.778 174.482 158.987 174.62 160.237C174.758 161.486 174.647 162.75 174.292 163.955C173.945 165.163 173.363 166.289 172.578 167.27C171.793 168.251 170.821 169.066 169.719 169.67C168.312 170.441 166.734 170.845 165.13 170.846ZM135.635 112.161L109.705 159.324C109.379 159.92 109.206 160.588 109.203 161.268C109.204 162.344 109.632 163.376 110.393 164.137C111.153 164.898 112.185 165.325 113.261 165.326H165.12C165.8 165.326 166.469 165.154 167.065 164.827C168.006 164.308 168.703 163.436 169.003 162.403C169.302 161.37 169.18 160.26 168.663 159.317L142.733 112.152C142.365 111.485 141.815 110.936 141.148 110.57C140.207 110.051 139.099 109.926 138.066 110.223C137.034 110.519 136.161 111.213 135.638 112.152L135.635 112.161Z" fill="#4A0E63"/>
<path d="M139.186 152.683C138.457 152.684 137.757 152.974 137.241 153.49C136.726 154.006 136.435 154.706 136.435 155.435C136.435 156.165 136.724 156.865 137.24 157.382C137.756 157.899 138.456 158.189 139.186 158.19C139.917 158.189 140.617 157.899 141.133 157.382C141.65 156.866 141.94 156.166 141.941 155.435C141.94 154.705 141.65 154.005 141.133 153.489C140.617 152.973 139.916 152.683 139.186 152.683Z" fill="#4A0E63"/>
<path d="M139.183 150.372C138.821 150.372 138.463 150.302 138.129 150.164C137.794 150.025 137.491 149.823 137.235 149.567C136.979 149.312 136.776 149.008 136.638 148.674C136.499 148.34 136.428 147.982 136.428 147.62V126.011C136.427 125.649 136.498 125.291 136.637 124.957C136.775 124.622 136.978 124.318 137.234 124.062C137.49 123.806 137.794 123.603 138.128 123.465C138.462 123.327 138.821 123.256 139.183 123.256C139.545 123.256 139.903 123.327 140.238 123.465C140.572 123.603 140.876 123.806 141.132 124.062C141.388 124.318 141.591 124.622 141.729 124.957C141.867 125.291 141.938 125.649 141.938 126.011V147.62C141.938 147.982 141.866 148.34 141.728 148.674C141.589 149.008 141.386 149.312 141.131 149.567C140.875 149.823 140.571 150.025 140.237 150.164C139.903 150.302 139.544 150.372 139.183 150.372Z" fill="#4A0E63"/>
<defs>
<clipPath id="clip0_7923:176578">
<rect width="99" height="41" fill="white" transform="translate(37.3223 117.21)"/>
</clipPath>
</defs>
</svg>
