<svg width="192" height="192" viewBox="0 0 192 192" fill="none" xmlns="http://www.w3.org/2000/svg">
<g clip-path="url(#clip0_8074:183218)">
<path d="M154.74 170.791H37.9893C37.5856 170.79 37.1827 170.757 36.7844 170.691C35.7613 170.527 34.7817 170.159 33.9036 169.608C33.0256 169.058 32.2672 168.337 31.6732 167.487C30.4393 165.756 29.9324 163.61 30.2612 161.509L35.9671 123.904C36.3615 121.226 37.4489 118.698 39.1215 116.57C40.7941 114.442 42.9937 112.787 45.5026 111.771L75.7359 99.822C76.7423 104.484 79.3031 108.666 82.9983 111.681C86.6936 114.697 91.3039 116.367 96.0731 116.418C100.885 116.362 105.534 114.661 109.245 111.597C112.956 108.533 115.506 104.291 116.472 99.5764L147.258 111.775C149.763 112.792 151.959 114.446 153.629 116.573C155.298 118.7 156.384 121.225 156.778 123.9L162.488 161.505C162.553 161.914 162.587 162.327 162.587 162.741C162.614 164.849 161.802 166.881 160.331 168.391C158.859 169.9 156.848 170.764 154.74 170.791Z" fill="#9C64B0"/>
<path opacity="0.2" d="M162.468 161.513L156.759 123.909C156.373 121.291 155.325 118.815 153.714 116.717C152.103 114.618 149.982 112.966 147.553 111.917C147.584 112.639 147.687 113.345 147.687 114.07C147.687 138.962 129.921 160.439 104.143 170.792H154.756C156.862 170.759 158.869 169.893 160.336 168.382C161.804 166.871 162.612 164.839 162.584 162.733C162.577 162.324 162.538 161.916 162.468 161.513Z" fill="black"/>
<path d="M96.698 94.8335C101.451 94.8229 106.168 94.0149 110.654 92.4429V98.0337C110.654 98.1335 110.689 98.2256 110.696 98.3215C110.691 102.116 109.181 105.753 106.498 108.435C103.815 111.118 100.177 112.626 96.3834 112.63C92.5903 112.626 88.9537 111.118 86.2713 108.436C83.5888 105.755 82.0795 102.118 82.0744 98.3253C82.0744 98.2524 82.0361 98.1949 82.0322 98.1258V92.1858C86.7261 93.9275 91.6914 94.8239 96.698 94.8335Z" fill="#EDCFAF"/>
<path d="M61.9104 43.4343C61.9246 34.3001 65.5597 25.5442 72.0189 19.0857C78.4781 12.6273 87.2344 8.99317 96.3685 8.97998C105.503 8.99014 114.261 12.6234 120.72 19.0826C127.179 25.5419 130.813 34.2995 130.823 43.4343V55.2222C130.787 55.348 130.76 55.4762 130.742 55.6059C130.74 60.6398 129.632 65.6117 127.498 70.1707C125.364 74.7297 122.255 78.7646 118.39 81.9906C118.102 82.2285 117.803 82.4587 117.504 82.6889C116.698 83.3221 115.865 83.9245 115.006 84.4847C114.062 85.091 113.087 85.6666 112.086 86.1846C107.204 88.732 101.779 90.0629 96.2726 90.064C90.7618 90.0639 85.3328 88.7316 80.448 86.1808C80.4019 86.1539 80.3712 86.1156 80.3252 86.0925C74.76 83.182 70.1 78.8005 66.8524 73.425C63.6048 68.0496 61.8941 61.8862 61.9066 55.6059L61.9104 43.4343Z" fill="#EDCFAF"/>
<path opacity="0.2" d="M118.264 16.854C123.361 23.0123 126.147 30.7585 126.138 38.753V50.5409C126.105 50.6672 126.079 50.7953 126.061 50.9246C126.06 55.9572 124.955 60.9284 122.823 65.4873C120.692 70.0462 117.586 74.0818 113.724 77.3092C113.436 77.5471 113.133 77.7774 112.838 78.0076C112.028 78.6407 111.199 79.2432 110.34 79.8034C109.396 80.4097 108.421 80.9853 107.42 81.5033C102.538 84.0507 97.113 85.3816 91.6065 85.3827C86.1009 85.3805 80.6772 84.0483 75.7972 81.4995C75.7511 81.4726 75.7204 81.4342 75.6744 81.4112C73.47 80.2332 71.401 78.8178 69.5042 77.1903C72.4698 80.8773 76.1639 83.9131 80.3558 86.1079C80.4018 86.131 80.4325 86.1693 80.4786 86.1962C85.3634 88.747 90.7925 90.0793 96.3032 90.0795C101.81 90.0783 107.235 88.7475 112.116 86.2C113.129 85.682 114.093 85.1064 115.036 84.5002C115.896 83.9399 116.729 83.349 117.534 82.7043C117.834 82.4741 118.133 82.2439 118.421 82.006C122.282 78.7785 125.389 74.743 127.52 70.184C129.652 65.6251 130.757 60.654 130.758 55.6213C130.775 55.4916 130.802 55.3634 130.838 55.2376V43.4497C130.84 38.3625 129.713 33.3383 127.539 28.7392C125.364 24.1401 122.196 20.0808 118.264 16.854Z" fill="black"/>
<path opacity="0.2" d="M82.0322 96.407C83.4322 98.5459 85.3422 100.303 87.5902 101.52C89.8382 102.737 92.3536 103.376 94.9099 103.379C98.1444 103.37 101.294 102.342 103.911 100.442C106.529 98.5416 108.481 95.8651 109.491 92.7923C105.359 94.1237 101.047 94.8097 96.7057 94.8261C91.6989 94.8153 86.7336 93.9176 82.0399 92.1746L82.0322 96.407Z" fill="black"/>
<path fill-rule="evenodd" clip-rule="evenodd" d="M112.696 95.3054C114.498 95.3038 115.959 96.7627 115.961 98.564C115.963 101.177 115.451 103.766 114.452 106.181C113.454 108.596 111.989 110.79 110.142 112.639C108.295 114.488 106.102 115.954 103.688 116.955C101.274 117.956 98.6861 118.471 96.0728 118.471C90.7981 118.471 85.7395 116.375 82.0097 112.646C78.2799 108.916 76.1846 103.857 76.1846 98.5824C76.1846 96.781 77.6449 95.3208 79.4462 95.3208C81.2475 95.3208 82.7078 96.781 82.7078 98.5824C82.7078 102.127 84.1159 105.526 86.6223 108.033C89.1288 110.539 92.5282 111.947 96.0728 111.947C97.829 111.947 99.5679 111.601 101.19 110.929C102.813 110.256 104.286 109.271 105.528 108.029C106.769 106.786 107.753 105.311 108.424 103.688C109.095 102.065 109.439 100.326 109.438 98.5701C109.436 96.7687 110.895 95.3071 112.696 95.3054Z" fill="#4A0E63"/>
<path d="M162.441 159.66L157.008 124.86C156.531 121.793 155.253 118.906 153.304 116.49C151.355 114.074 148.804 112.215 145.907 111.1L112.661 98.2795V88.2107C118.781 85.1908 123.934 80.5194 127.538 74.7245C131.142 68.9296 133.053 62.2421 133.056 55.4179V43.6262C133.057 38.8169 132.112 34.0544 130.272 29.6108C128.433 25.1672 125.736 21.1294 122.336 17.7282C118.936 14.327 114.899 11.629 110.456 9.78821C106.013 7.94743 101.251 7 96.4413 7C86.7308 7.00203 77.4185 10.8602 70.5517 17.7262C63.685 24.5922 59.8259 33.9041 59.8228 43.6146V55.4025C59.8218 62.0741 61.6444 68.6189 65.0936 74.3297C68.5428 80.0404 73.4873 84.6997 79.3926 87.8039V98.5673L46.8223 111.096C43.92 112.207 41.3625 114.065 39.4085 116.482C37.4545 118.899 36.1733 121.789 35.6944 124.86L30.2686 159.648C30.0512 161.036 30.1096 162.454 30.4404 163.82C30.7712 165.186 31.3679 166.473 32.1965 167.608C33.025 168.743 34.0692 169.703 35.2692 170.435C36.4692 171.166 37.8016 171.653 39.1901 171.87C39.7358 171.957 40.2875 172.001 40.8401 172H151.866C154.704 172 157.425 170.873 159.432 168.867C161.439 166.861 162.567 164.14 162.568 161.302C162.567 160.752 162.525 160.203 162.441 159.66Z" stroke="#4A0E63" stroke-width="7" stroke-linecap="round" stroke-linejoin="round"/>
<path fill-rule="evenodd" clip-rule="evenodd" d="M132.972 52.1523C134.773 52.1525 136.233 53.613 136.233 55.4143C136.232 65.9905 132.03 76.1331 124.551 83.6111C117.072 91.0892 106.929 95.2902 96.353 95.2902C85.7769 95.2902 75.6338 91.0892 68.155 83.6111C60.6761 76.1331 56.474 65.9905 56.4729 55.4143L62.9962 55.4136C62.9971 64.2598 66.5119 72.7434 72.7674 78.9982C79.0229 85.2531 87.5068 88.767 96.353 88.767C105.199 88.767 113.683 85.2531 119.939 78.9982C126.194 72.7434 129.709 64.2598 129.71 55.4136C129.71 53.6123 131.17 52.1522 132.972 52.1523Z" fill="#4A0E63"/>
<path d="M182.386 179.982L156.456 132.813C155.942 131.881 155.175 131.113 154.243 130.599C153.593 130.237 152.877 130.007 152.138 129.923C151.399 129.839 150.65 129.902 149.935 130.11C149.217 130.312 148.546 130.656 147.962 131.12C147.378 131.584 146.892 132.159 146.532 132.813L120.603 179.979C120.142 180.818 119.9 181.76 119.899 182.717C119.901 184.223 120.5 185.666 121.564 186.731C122.629 187.795 124.072 188.394 125.578 188.396H177.453C178.405 188.395 179.341 188.154 180.175 187.696C180.83 187.336 181.406 186.851 181.872 186.268C182.338 185.685 182.685 185.016 182.892 184.299C183.096 183.582 183.156 182.831 183.069 182.09C182.983 181.349 182.75 180.633 182.386 179.982Z" fill="#FFCC00"/>
<path opacity="0.2" d="M182.383 179.982L156.454 132.813C155.939 131.881 155.172 131.113 154.24 130.599C153.59 130.237 152.874 130.007 152.135 129.923C151.396 129.839 150.647 129.902 149.932 130.11C148.626 130.487 147.501 131.325 146.766 132.469C146.843 132.589 146.954 132.686 147.025 132.813L172.948 179.982C173.308 180.635 173.535 181.352 173.616 182.093C173.698 182.834 173.633 183.583 173.424 184.299C173.218 185.016 172.871 185.685 172.405 186.268C171.939 186.851 171.362 187.336 170.708 187.696C169.874 188.154 168.937 188.395 167.986 188.396H177.417C178.369 188.395 179.306 188.154 180.14 187.696C180.794 187.336 181.371 186.851 181.837 186.268C182.303 185.685 182.649 185.016 182.856 184.299C183.065 183.584 183.131 182.834 183.05 182.093C182.969 181.352 182.742 180.635 182.383 179.982Z" fill="black"/>
<path d="M177.424 192.271H125.565C123.028 192.268 120.596 191.259 118.803 189.465C117.01 187.672 116.002 185.239 116 182.703C116 181.092 116.406 179.507 117.18 178.094L143.109 130.935C144.338 128.717 146.397 127.077 148.833 126.375C151.27 125.672 153.885 125.965 156.106 127.188C157.684 128.059 158.983 129.358 159.853 130.935L185.783 178.104C186.392 179.203 186.776 180.412 186.914 181.661C187.052 182.91 186.941 184.174 186.586 185.38C186.239 186.587 185.656 187.714 184.871 188.695C184.087 189.676 183.115 190.491 182.013 191.094C180.606 191.865 179.028 192.27 177.424 192.271ZM147.929 133.586L121.999 180.748C121.673 181.345 121.5 182.013 121.497 182.693C121.498 183.769 121.926 184.801 122.687 185.562C123.447 186.322 124.479 186.75 125.555 186.751H177.414C178.094 186.751 178.763 186.579 179.359 186.252C180.3 185.732 180.997 184.86 181.297 183.827C181.596 182.794 181.474 181.685 180.956 180.742L155.027 133.576C154.659 132.91 154.109 132.361 153.442 131.995C152.501 131.476 151.393 131.351 150.36 131.647C149.328 131.944 148.454 132.637 147.932 133.576L147.929 133.586Z" fill="#4A0E63"/>
<path d="M151.48 174.108C150.75 174.109 150.051 174.399 149.535 174.915C149.019 175.431 148.729 176.13 148.728 176.86C148.728 177.59 149.018 178.29 149.534 178.807C150.05 179.323 150.75 179.614 151.48 179.615C152.21 179.614 152.91 179.324 153.427 178.807C153.943 178.291 154.234 177.59 154.235 176.86C154.234 176.13 153.943 175.43 153.427 174.914C152.91 174.398 152.21 174.108 151.48 174.108Z" fill="#4A0E63"/>
<path d="M151.477 171.797C151.115 171.797 150.757 171.726 150.423 171.588C150.088 171.45 149.785 171.248 149.529 170.992C149.273 170.736 149.07 170.433 148.931 170.099C148.793 169.765 148.722 169.407 148.722 169.045V147.436C148.721 147.074 148.792 146.716 148.931 146.381C149.069 146.047 149.272 145.743 149.528 145.487C149.784 145.231 150.087 145.028 150.422 144.89C150.756 144.752 151.115 144.681 151.477 144.681C151.839 144.681 152.197 144.752 152.531 144.89C152.866 145.028 153.17 145.231 153.426 145.487C153.682 145.743 153.885 146.047 154.023 146.381C154.161 146.716 154.232 147.074 154.232 147.436V169.045C154.232 169.407 154.16 169.765 154.022 170.099C153.883 170.433 153.68 170.736 153.425 170.992C153.169 171.248 152.865 171.45 152.531 171.588C152.196 171.726 151.838 171.797 151.477 171.797Z" fill="#4A0E63"/>
</g>
<defs>
<clipPath id="clip0_8074:183218">
<rect width="192" height="192" fill="white"/>
</clipPath>
</defs>
</svg>
