<svg width="192" height="192" viewBox="0 0 192 192" fill="none" xmlns="http://www.w3.org/2000/svg">
<g clip-path="url(#clip0_8074:183254)">
<path d="M142.227 6.24097H40.2918C35.1849 6.29988 30.3058 8.36091 26.7067 11.9795C23.1076 15.598 21.0769 20.4842 21.0525 25.5843V157.58L29.2927 149.659C30.4151 148.611 31.8943 148.028 33.431 148.028C34.9677 148.028 36.4469 148.611 37.5693 149.659L44.3502 156.072C45.3076 156.975 46.5745 157.478 47.8913 157.478C49.208 157.478 50.475 156.975 51.4324 156.072L58.177 149.677C59.2991 148.619 60.7843 148.029 62.328 148.029C63.8717 148.029 65.3569 148.619 66.479 149.677L73.2491 156.083C74.2046 156.991 75.4731 157.497 76.792 157.497C78.1109 157.497 79.3793 156.991 80.3349 156.083L87.0941 149.681C88.218 148.633 89.6984 148.05 91.236 148.05C92.7736 148.05 94.2539 148.633 95.3778 149.681L102.159 156.094C103.118 156.995 104.385 157.497 105.702 157.497C107.019 157.497 108.286 156.995 109.245 156.094L116 149.696C117.117 148.633 118.601 148.04 120.144 148.04C121.687 148.04 123.17 148.633 124.288 149.696L131.054 156.094C132.013 156.998 133.282 157.502 134.601 157.502C135.919 157.502 137.188 156.998 138.147 156.094L144.895 149.696C146.019 148.649 147.497 148.065 149.033 148.061C150.569 148.057 152.051 148.633 153.179 149.674L161.47 157.489V25.6061C161.452 20.5013 159.424 15.6084 155.823 11.9849C152.223 8.36135 147.339 6.29807 142.227 6.24097Z" fill="white"/>
<path d="M142.306 6.24097H40.8649C38.3319 6.26529 35.8287 6.79111 33.4994 7.78818C31.1702 8.78526 29.0609 10.234 27.293 12.0507L161.47 145.099V25.5367C161.445 20.4451 159.421 15.5677 155.835 11.9576C152.25 8.3474 147.39 6.29409 142.306 6.24097Z" fill="#D9D9D9"/>
<path d="M20.537 163.821H20.3808C19.6292 163.8 18.8892 163.631 18.2034 163.325C17.5175 163.018 16.8994 162.579 16.3847 162.032C15.3628 160.967 14.7984 159.546 14.8118 158.073V25.4562C14.8447 18.7424 17.5252 12.3107 22.275 7.54837C27.0248 2.78607 33.4631 0.0749617 40.2011 0H142.282C149.026 0.0626978 155.476 2.7681 160.234 7.53114C164.993 12.2942 167.679 18.7321 167.711 25.4527V158.134C167.709 159.248 167.383 160.337 166.771 161.27C166.16 162.202 165.29 162.937 164.267 163.386C163.514 163.698 162.702 163.845 161.888 163.817C160.432 163.811 159.034 163.252 157.979 162.253L149.017 153.823L142.441 160.212C140.334 162.196 137.545 163.302 134.646 163.302C131.746 163.302 128.957 162.196 126.85 160.212L120.074 153.816L113.514 160.212C111.407 162.191 108.621 163.292 105.725 163.292C102.83 163.292 100.044 162.191 97.9365 160.212L91.1578 153.812L84.5861 160.208C82.4797 162.192 79.6908 163.298 76.792 163.298C73.8932 163.298 71.1044 162.192 68.9979 160.208L62.2301 153.812L55.6621 160.205C53.5552 162.185 50.7682 163.288 47.8717 163.288C44.9751 163.288 42.1881 162.185 40.0812 160.205L33.3061 153.805L24.5185 162.242C23.4482 163.265 22.0198 163.831 20.537 163.821ZM162.149 157.751L162.178 157.78C162.178 157.78 162.189 157.769 162.164 157.751H162.149ZM142.22 6.14598H40.2083C35.0977 6.2048 30.215 8.26269 26.6132 11.8757C23.0114 15.4888 20.9792 20.3675 20.9548 25.4599V157.255L29.2011 149.346C30.3243 148.299 31.8046 147.717 33.3424 147.717C34.8802 147.717 36.3606 148.299 37.4838 149.346L44.2698 155.749C45.228 156.65 46.4958 157.152 47.8135 157.152C49.1313 157.152 50.3991 156.65 51.3573 155.749L58.1069 149.364C59.2298 148.307 60.7162 147.718 62.261 147.718C63.8059 147.718 65.2922 148.307 66.4151 149.364L73.1902 155.76C74.1464 156.666 75.4158 157.172 76.7357 157.172C78.0556 157.172 79.325 156.666 80.2813 155.76L87.0455 149.368C88.1703 148.321 89.6517 147.74 91.1905 147.74C92.7292 147.74 94.2106 148.321 95.3354 149.368L102.121 155.771C103.081 156.671 104.349 157.172 105.667 157.172C106.985 157.172 108.253 156.671 109.213 155.771L115.973 149.382C117.091 148.321 118.576 147.729 120.12 147.729C121.664 147.729 123.149 148.321 124.267 149.382L131.038 155.771C131.998 156.674 133.268 157.177 134.587 157.177C135.907 157.177 137.177 156.674 138.137 155.771L144.89 149.382C146.014 148.337 147.493 147.754 149.031 147.75C150.568 147.746 152.05 148.321 153.18 149.361L161.477 157.164V25.4816C161.459 20.3871 159.431 15.5037 155.831 11.8861C152.231 8.26851 147.347 6.20677 142.234 6.14598H142.22Z" fill="#4A0E63"/>
<path d="M72.573 44.9755C63.4042 44.9755 60.18 53.0204 57.8721 103.317C57.8721 112.958 63.6844 119.954 71.6945 119.954H112.287C114.245 119.949 116.176 119.492 117.928 118.618C119.681 117.744 121.208 116.477 122.391 114.916C124.848 111.529 126.121 107.427 126.011 103.244C123.707 53.0078 120.479 44.9724 111.311 44.9724L72.573 44.9755Z" stroke="#4A0E63" stroke-width="5" stroke-linecap="round" stroke-linejoin="round"/>
<path d="M74.075 59.6922C74.075 44.2639 82.0756 31.7827 91.9465 31.7827C101.817 31.7827 109.818 44.2765 109.818 59.6922" stroke="#4A0E63" stroke-width="5" stroke-linecap="round" stroke-linejoin="round"/>
<path fill-rule="evenodd" clip-rule="evenodd" d="M107.853 101.5C108.193 101.5 108.519 101.36 108.76 101.112C109 100.864 109.135 100.527 109.135 100.176V87.4633C109.135 86.5938 108.969 85.7329 108.647 84.9296C108.325 84.1262 107.853 83.3963 107.258 82.7815C106.663 82.1667 105.957 81.679 105.179 81.3463C104.402 81.0135 103.569 80.8423 102.727 80.8423H77.6283L86.2065 71.9806C86.4471 71.732 86.5823 71.3947 86.5823 71.0431C86.5823 70.6914 86.4471 70.3542 86.2065 70.1055C85.9659 69.8569 85.6395 69.7172 85.2992 69.7172C84.9589 69.7172 84.6326 69.8569 84.3919 70.1055L73.6275 81.2289C73.5081 81.3519 73.4134 81.4981 73.3488 81.6589C73.2842 81.8198 73.251 81.9923 73.251 82.1665C73.251 82.3406 73.2842 82.5131 73.3488 82.674C73.4134 82.8349 73.5081 82.981 73.6275 83.104L83.8793 93.6977C84.12 93.9464 84.4463 94.0861 84.7866 94.0861C85.1269 94.0861 85.4533 93.9464 85.6939 93.6977C85.9345 93.4491 86.0697 93.1118 86.0697 92.7602C86.0697 92.4085 85.9345 92.0713 85.6939 91.8226L77.6283 83.4907H102.727C103.747 83.4907 104.725 83.9092 105.446 84.6542C106.167 85.3993 106.572 86.4097 106.572 87.4633V100.176C106.572 100.527 106.707 100.864 106.947 101.112C107.188 101.36 107.513 101.5 107.853 101.5Z" fill="#4A0E63" stroke="#4A0E63" stroke-width="2"/>
<path fill-rule="evenodd" clip-rule="evenodd" d="M183.195 159.098C183.195 177.377 168.377 192.195 150.098 192.195C131.818 192.195 117 177.377 117 159.098C117 140.818 131.818 126 150.098 126C168.377 126 183.195 140.818 183.195 159.098ZM178.317 159.098C178.317 174.683 165.683 187.317 150.098 187.317C134.513 187.317 121.878 174.683 121.878 159.098C121.878 143.513 134.513 130.878 150.098 130.878C165.683 130.878 178.317 143.513 178.317 159.098Z" fill="#4A0E63"/>
<path d="M150.098 187.317C165.683 187.317 178.317 174.683 178.317 159.098C178.317 143.513 165.683 130.878 150.098 130.878C134.513 130.878 121.878 143.513 121.878 159.098C121.878 174.683 134.513 187.317 150.098 187.317Z" fill="#66B583"/>
<g style="mix-blend-mode:multiply" opacity="0.7">
<path d="M166.525 136.2C169.982 140.979 171.844 146.727 171.844 152.626C171.834 160.107 168.858 167.279 163.568 172.569C158.278 177.859 151.106 180.835 143.625 180.845C137.725 180.844 131.976 178.982 127.197 175.523C129.8 179.17 133.236 182.143 137.218 184.197C141.201 186.25 145.616 187.324 150.097 187.329C157.579 187.32 164.753 184.344 170.043 179.053C175.334 173.762 178.31 166.589 178.319 159.107C178.316 154.626 177.245 150.21 175.194 146.226C173.143 142.243 170.171 138.806 166.525 136.2Z" fill="#66B583"/>
</g>
<path d="M145.943 174.421C145.594 174.421 145.249 174.351 144.928 174.213C144.608 174.076 144.318 173.875 144.078 173.622L134.694 163.781C134.224 163.287 133.969 162.627 133.986 161.946C134.002 161.265 134.288 160.618 134.782 160.148C135.026 159.915 135.313 159.732 135.628 159.61C135.943 159.488 136.279 159.429 136.616 159.437C136.954 159.446 137.286 159.52 137.595 159.657C137.903 159.794 138.182 159.991 138.414 160.236L145.613 167.789L161.502 144.888C161.695 144.611 161.94 144.373 162.224 144.191C162.509 144.008 162.826 143.883 163.159 143.823C163.491 143.762 163.832 143.768 164.163 143.84C164.493 143.912 164.806 144.048 165.083 144.24C165.361 144.433 165.598 144.678 165.781 144.962C165.964 145.246 166.089 145.563 166.149 145.895C166.209 146.228 166.203 146.568 166.131 146.898C166.06 147.228 165.924 147.541 165.731 147.819L148.044 173.316C147.826 173.63 147.541 173.892 147.209 174.083C146.878 174.273 146.508 174.388 146.127 174.418C146.076 174.421 146.012 174.421 145.943 174.421Z" fill="white"/>
</g>
<defs>
<clipPath id="clip0_8074:183254">
<rect width="192" height="192" fill="white"/>
</clipPath>
</defs>
</svg>
