<svg width="192" height="192" viewBox="0 0 192 192" fill="none" xmlns="http://www.w3.org/2000/svg">
<g clip-path="url(#clip0_8496:186253)">
<path d="M139.416 6.24097H37.48C32.3732 6.29988 27.4941 8.36091 23.895 11.9795C20.2959 15.598 18.2651 20.4842 18.2407 25.5843V157.58L26.481 149.659C27.6033 148.611 29.0826 148.028 30.6192 148.028C32.1559 148.028 33.6351 148.611 34.7575 149.659L41.5384 156.072C42.4959 156.975 43.7628 157.478 45.0795 157.478C46.3963 157.478 47.6632 156.975 48.6207 156.072L55.3653 149.677C56.4873 148.619 57.9726 148.029 59.5163 148.029C61.06 148.029 62.5452 148.619 63.6672 149.677L70.4373 156.083C71.3928 156.991 72.6613 157.497 73.9802 157.497C75.2991 157.497 76.5676 156.991 77.5231 156.083L84.2823 149.681C85.4062 148.633 86.8866 148.05 88.4242 148.05C89.9618 148.05 91.4421 148.633 92.5661 149.681L99.3471 156.094C100.306 156.995 101.573 157.497 102.89 157.497C104.207 157.497 105.474 156.995 106.433 156.094L113.188 149.696C114.306 148.633 115.789 148.04 117.332 148.04C118.875 148.04 120.359 148.633 121.476 149.696L128.242 156.094C129.201 156.998 130.47 157.502 131.789 157.502C133.108 157.502 134.377 156.998 135.335 156.094L142.084 149.696C143.207 148.649 144.685 148.065 146.221 148.061C147.758 148.057 149.239 148.633 150.367 149.674L158.659 157.489V25.6061C158.641 20.5013 156.612 15.6084 153.012 11.9849C149.411 8.36135 144.527 6.29807 139.416 6.24097Z" fill="white"/>
<path d="M139.494 6.24097H38.0534C35.5204 6.26529 33.0172 6.79111 30.6879 7.78818C28.3586 8.78526 26.2493 10.234 24.4814 12.0507L158.658 145.099V25.5367C158.633 20.4451 156.609 15.5677 153.024 11.9576C149.438 8.3474 144.579 6.29409 139.494 6.24097Z" fill="#D9D9D9"/>
<path d="M17.7255 163.821H17.5693C16.8177 163.8 16.0777 163.631 15.3919 163.325C14.706 163.018 14.0879 162.579 13.5732 162.032C12.5513 160.967 11.9869 159.546 12.0002 158.073V25.4562C12.0332 18.7424 14.7137 12.3107 19.4635 7.54837C24.2133 2.78607 30.6516 0.0749617 37.3896 0H139.47C146.215 0.0626978 152.664 2.7681 157.423 7.53114C162.181 12.2942 164.867 18.7321 164.899 25.4527V158.134C164.898 159.248 164.571 160.337 163.96 161.27C163.349 162.202 162.478 162.937 161.455 163.386C160.702 163.698 159.891 163.845 159.076 163.817C157.621 163.811 156.222 163.252 155.167 162.253L146.205 153.823L139.63 160.212C137.523 162.196 134.733 163.302 131.834 163.302C128.935 163.302 126.145 162.196 124.038 160.212L117.263 153.816L110.702 160.212C108.595 162.191 105.809 163.292 102.914 163.292C100.018 163.292 97.2321 162.191 95.125 160.212L88.3462 153.812L81.7746 160.208C79.6681 162.192 76.8793 163.298 73.9805 163.298C71.0817 163.298 68.2929 162.192 66.1864 160.208L59.4186 153.812L52.8506 160.205C50.7437 162.185 47.9567 163.288 45.0602 163.288C42.1636 163.288 39.3766 162.185 37.2697 160.205L30.4946 153.805L21.7069 162.242C20.6367 163.265 19.2083 163.831 17.7255 163.821ZM159.338 157.751L159.367 157.78C159.367 157.78 159.378 157.769 159.352 157.751H159.338ZM139.408 6.14598H37.3968C32.2862 6.2048 27.4035 8.26269 23.8017 11.8757C20.1999 15.4888 18.1677 20.3675 18.1433 25.4599V157.255L26.3896 149.346C27.5128 148.299 28.9931 147.717 30.5309 147.717C32.0687 147.717 33.5491 148.299 34.6722 149.346L41.4583 155.749C42.4165 156.65 43.6843 157.152 45.002 157.152C46.3197 157.152 47.5876 156.65 48.5457 155.749L55.2954 149.364C56.4183 148.307 57.9046 147.718 59.4495 147.718C60.9944 147.718 62.4806 148.307 63.6035 149.364L70.3786 155.76C71.3349 156.666 72.6043 157.172 73.9242 157.172C75.2441 157.172 76.5135 156.666 77.4698 155.76L84.234 149.368C85.3587 148.321 86.8402 147.74 88.379 147.74C89.9177 147.74 91.3991 148.321 92.5239 149.368L99.3099 155.771C100.269 156.671 101.538 157.172 102.855 157.172C104.173 157.172 105.441 156.671 106.401 155.771L113.162 149.382C114.28 148.321 115.764 147.729 117.308 147.729C118.852 147.729 120.337 148.321 121.455 149.382L128.227 155.771C129.186 156.674 130.456 157.177 131.776 157.177C133.096 157.177 134.365 156.674 135.325 155.771L142.078 149.382C143.202 148.337 144.681 147.754 146.219 147.75C147.757 147.746 149.239 148.321 150.368 149.361L158.665 157.164V25.4816C158.648 20.3871 156.62 15.5037 153.02 11.8861C149.419 8.26851 144.536 6.20677 139.423 6.14598H139.408Z" fill="#4A0E63"/>
<path d="M182.386 179.982L156.457 132.813C155.943 131.881 155.175 131.113 154.243 130.599C153.593 130.237 152.878 130.007 152.138 129.923C151.399 129.839 150.65 129.902 149.935 130.11C149.217 130.312 148.547 130.656 147.962 131.12C147.378 131.584 146.892 132.159 146.532 132.813L120.603 179.979C120.142 180.818 119.901 181.76 119.899 182.717C119.901 184.223 120.5 185.666 121.565 186.731C122.629 187.795 124.072 188.394 125.578 188.396H177.453C178.405 188.395 179.341 188.154 180.176 187.696C180.83 187.336 181.407 186.851 181.873 186.268C182.339 185.685 182.685 185.016 182.892 184.299C183.096 183.582 183.156 182.831 183.07 182.09C182.983 181.349 182.751 180.633 182.386 179.982Z" fill="#FFCC00"/>
<path opacity="0.2" d="M182.383 179.982L156.454 132.813C155.939 131.881 155.172 131.113 154.24 130.599C153.59 130.237 152.874 130.007 152.135 129.923C151.396 129.839 150.647 129.902 149.932 130.11C148.626 130.487 147.501 131.325 146.766 132.469C146.843 132.589 146.954 132.686 147.025 132.813L172.948 179.982C173.308 180.635 173.535 181.352 173.616 182.093C173.698 182.834 173.633 183.583 173.424 184.299C173.218 185.016 172.871 185.685 172.405 186.268C171.939 186.851 171.362 187.336 170.708 187.696C169.874 188.154 168.937 188.395 167.986 188.396H177.417C178.369 188.395 179.306 188.154 180.14 187.696C180.794 187.336 181.371 186.851 181.837 186.268C182.303 185.685 182.649 185.016 182.856 184.299C183.065 183.584 183.131 182.834 183.05 182.093C182.969 181.352 182.742 180.635 182.383 179.982Z" fill="black"/>
<path d="M177.424 192.271H125.565C123.028 192.268 120.596 191.259 118.803 189.465C117.01 187.672 116.002 185.239 116 182.703C116 181.092 116.406 179.507 117.18 178.094L143.109 130.935C144.338 128.717 146.397 127.077 148.833 126.375C151.27 125.672 153.885 125.965 156.106 127.188C157.684 128.059 158.983 129.358 159.853 130.935L185.783 178.104C186.392 179.203 186.776 180.412 186.914 181.661C187.052 182.91 186.941 184.174 186.586 185.38C186.239 186.587 185.656 187.714 184.871 188.695C184.087 189.676 183.115 190.491 182.013 191.094C180.606 191.865 179.028 192.27 177.424 192.271ZM147.929 133.586L121.999 180.748C121.673 181.345 121.5 182.013 121.497 182.693C121.498 183.769 121.926 184.801 122.687 185.562C123.447 186.322 124.479 186.75 125.555 186.751H177.414C178.094 186.751 178.763 186.579 179.359 186.252C180.3 185.732 180.997 184.86 181.297 183.827C181.596 182.794 181.474 181.685 180.956 180.742L155.027 133.576C154.659 132.91 154.109 132.361 153.442 131.995C152.501 131.476 151.393 131.351 150.36 131.647C149.328 131.944 148.454 132.637 147.932 133.576L147.929 133.586Z" fill="#4A0E63"/>
<path d="M151.48 174.108C150.75 174.109 150.051 174.399 149.535 174.915C149.019 175.431 148.729 176.13 148.728 176.86C148.728 177.59 149.018 178.29 149.534 178.807C150.05 179.323 150.75 179.614 151.48 179.615C152.21 179.614 152.91 179.324 153.427 178.807C153.943 178.291 154.234 177.59 154.235 176.86C154.234 176.13 153.943 175.43 153.427 174.914C152.91 174.398 152.21 174.108 151.48 174.108Z" fill="#4A0E63"/>
<path d="M151.477 171.797C151.115 171.797 150.757 171.726 150.423 171.588C150.088 171.45 149.785 171.248 149.529 170.992C149.273 170.736 149.07 170.433 148.931 170.099C148.793 169.765 148.722 169.407 148.722 169.045V147.436C148.721 147.074 148.792 146.716 148.931 146.381C149.069 146.047 149.272 145.743 149.528 145.487C149.784 145.231 150.087 145.028 150.422 144.89C150.756 144.752 151.115 144.681 151.477 144.681C151.839 144.681 152.197 144.752 152.531 144.89C152.866 145.028 153.17 145.231 153.426 145.487C153.682 145.743 153.885 146.047 154.023 146.381C154.161 146.716 154.232 147.074 154.232 147.436V169.045C154.232 169.407 154.16 169.765 154.022 170.099C153.883 170.433 153.68 170.736 153.425 170.992C153.169 171.248 152.865 171.45 152.531 171.588C152.196 171.726 151.838 171.797 151.477 171.797Z" fill="#4A0E63"/>
<path d="M68.5759 37.2H107.424C108.756 37.2 110.075 37.4623 111.306 37.9721C112.537 38.4819 113.655 39.2291 114.597 40.1711C115.539 41.113 116.286 42.2313 116.796 43.462C117.305 44.6927 117.568 46.0118 117.568 47.344V122.672C117.568 123.217 117.46 123.756 117.251 124.259C117.041 124.762 116.734 125.219 116.348 125.602C115.961 125.986 115.502 126.289 114.997 126.495C114.493 126.701 113.953 126.804 113.408 126.8H62.5919C61.4971 126.8 60.4471 126.365 59.6729 125.591C58.8988 124.817 58.4639 123.767 58.4639 122.672V47.344C58.4639 44.6591 59.5282 42.0838 61.4237 40.1824C63.3191 38.2809 65.8911 37.2084 68.5759 37.2V37.2Z" stroke="#4A0E63" stroke-width="6" stroke-linecap="round" stroke-linejoin="round"/>
<path d="M58.4321 66.928H117.568" stroke="#4A0E63" stroke-width="6" stroke-linecap="round" stroke-linejoin="round"/>
<path d="M107.52 54.8H95.8398" stroke="#4A0E63" stroke-width="6" stroke-linecap="round" stroke-linejoin="round"/>
<path d="M107.52 78.7039H95.8398" stroke="#4A0E63" stroke-width="6" stroke-linecap="round" stroke-linejoin="round"/>
</g>
<defs>
<clipPath id="clip0_8496:186253">
<rect width="192" height="192" fill="white"/>
</clipPath>
</defs>
</svg>
