<svg width="192" height="192" viewBox="0 0 192 192" fill="none" xmlns="http://www.w3.org/2000/svg">
<g clip-path="url(#clip0_8074:183114)">
<path d="M142.227 6.24097H40.2916C35.1847 6.29988 30.3056 8.36091 26.7065 11.9795C23.1074 15.598 21.0767 20.4842 21.0522 25.5843V157.58L29.2925 149.659C30.4148 148.611 31.8941 148.028 33.4307 148.028C34.9674 148.028 36.4467 148.611 37.569 149.659L44.3499 156.072C45.3074 156.975 46.5743 157.478 47.891 157.478C49.2078 157.478 50.4747 156.975 51.4322 156.072L58.1768 149.677C59.2988 148.619 60.7841 148.029 62.3278 148.029C63.8715 148.029 65.3567 148.619 66.4787 149.677L73.2488 156.083C74.2044 156.991 75.4728 157.497 76.7917 157.497C78.1106 157.497 79.3791 156.991 80.3347 156.083L87.0938 149.681C88.2178 148.633 89.6981 148.05 91.2357 148.05C92.7734 148.05 94.2536 148.633 95.3776 149.681L102.159 156.094C103.117 156.995 104.385 157.497 105.702 157.497C107.018 157.497 108.286 156.995 109.244 156.094L116 149.696C117.117 148.633 118.601 148.04 120.144 148.04C121.687 148.04 123.17 148.633 124.287 149.696L131.054 156.094C132.013 156.998 133.282 157.502 134.6 157.502C135.919 157.502 137.188 156.998 138.147 156.094L144.895 149.696C146.018 148.649 147.496 148.065 149.033 148.061C150.569 148.057 152.05 148.633 153.179 149.674L161.47 157.489V25.6061C161.452 20.5013 159.424 15.6084 155.823 11.9849C152.222 8.36135 147.339 6.29807 142.227 6.24097Z" fill="white"/>
<path d="M142.306 6.24097H40.8649C38.3319 6.26529 35.8287 6.79111 33.4994 7.78818C31.1702 8.78526 29.0609 10.234 27.293 12.0507L161.47 145.099V25.5367C161.445 20.4451 159.421 15.5677 155.835 11.9576C152.25 8.3474 147.39 6.29409 142.306 6.24097Z" fill="#D9D9D9"/>
<path d="M20.537 163.821H20.3808C19.6292 163.8 18.8892 163.631 18.2034 163.325C17.5175 163.018 16.8994 162.579 16.3847 162.032C15.3628 160.967 14.7984 159.546 14.8118 158.073V25.4562C14.8447 18.7424 17.5252 12.3107 22.275 7.54837C27.0248 2.78607 33.4631 0.0749617 40.2011 0H142.282C149.026 0.0626978 155.476 2.7681 160.234 7.53114C164.993 12.2942 167.679 18.7321 167.711 25.4527V158.134C167.709 159.248 167.383 160.337 166.771 161.27C166.16 162.202 165.29 162.937 164.267 163.386C163.514 163.698 162.702 163.845 161.888 163.817C160.432 163.811 159.034 163.252 157.979 162.253L149.017 153.823L142.441 160.212C140.334 162.196 137.545 163.302 134.646 163.302C131.746 163.302 128.957 162.196 126.85 160.212L120.074 153.816L113.514 160.212C111.407 162.191 108.621 163.292 105.725 163.292C102.83 163.292 100.044 162.191 97.9365 160.212L91.1578 153.812L84.5861 160.208C82.4797 162.192 79.6908 163.298 76.792 163.298C73.8932 163.298 71.1044 162.192 68.9979 160.208L62.2301 153.812L55.6621 160.205C53.5552 162.185 50.7682 163.288 47.8717 163.288C44.9751 163.288 42.1881 162.185 40.0812 160.205L33.3061 153.805L24.5185 162.242C23.4482 163.265 22.0198 163.831 20.537 163.821ZM162.149 157.751L162.178 157.78C162.178 157.78 162.189 157.769 162.164 157.751H162.149ZM142.22 6.14598H40.2083C35.0977 6.2048 30.215 8.26269 26.6132 11.8757C23.0114 15.4888 20.9792 20.3675 20.9548 25.4599V157.255L29.2011 149.346C30.3243 148.299 31.8046 147.717 33.3424 147.717C34.8802 147.717 36.3606 148.299 37.4838 149.346L44.2698 155.749C45.228 156.65 46.4958 157.152 47.8135 157.152C49.1313 157.152 50.3991 156.65 51.3573 155.749L58.1069 149.364C59.2298 148.307 60.7162 147.718 62.261 147.718C63.8059 147.718 65.2922 148.307 66.4151 149.364L73.1902 155.76C74.1464 156.666 75.4158 157.172 76.7357 157.172C78.0556 157.172 79.325 156.666 80.2813 155.76L87.0455 149.368C88.1703 148.321 89.6517 147.74 91.1905 147.74C92.7292 147.74 94.2106 148.321 95.3354 149.368L102.121 155.771C103.081 156.671 104.349 157.172 105.667 157.172C106.985 157.172 108.253 156.671 109.213 155.771L115.973 149.382C117.091 148.321 118.576 147.729 120.12 147.729C121.664 147.729 123.149 148.321 124.267 149.382L131.038 155.771C131.998 156.674 133.268 157.177 134.587 157.177C135.907 157.177 137.177 156.674 138.137 155.771L144.89 149.382C146.014 148.337 147.493 147.754 149.031 147.75C150.568 147.746 152.05 148.321 153.18 149.361L161.477 157.164V25.4816C161.459 20.3871 159.431 15.5037 155.831 11.8861C152.231 8.26851 147.347 6.20677 142.234 6.14598H142.22Z" fill="#4A0E63"/>
<path d="M72.573 44.9755C63.4042 44.9755 60.18 53.0204 57.8721 103.317C57.8721 112.958 63.6844 119.954 71.6945 119.954H112.287C114.245 119.949 116.176 119.492 117.928 118.618C119.681 117.744 121.208 116.477 122.391 114.916C124.848 111.529 126.121 107.427 126.011 103.244C123.707 53.0078 120.479 44.9724 111.311 44.9724L72.573 44.9755Z" stroke="#4A0E63" stroke-width="5" stroke-linecap="round" stroke-linejoin="round"/>
<path d="M74.0752 59.6922C74.0752 44.2639 82.0758 31.7827 91.9468 31.7827C101.818 31.7827 109.818 44.2765 109.818 59.6922" stroke="#4A0E63" stroke-width="5" stroke-linecap="round" stroke-linejoin="round"/>
<path fill-rule="evenodd" clip-rule="evenodd" d="M107.853 101.5C108.193 101.5 108.519 101.36 108.76 101.112C109 100.864 109.135 100.527 109.135 100.176V87.4633C109.135 86.5938 108.969 85.7329 108.647 84.9296C108.325 84.1262 107.853 83.3963 107.258 82.7815C106.663 82.1667 105.957 81.679 105.179 81.3463C104.402 81.0135 103.569 80.8423 102.727 80.8423H77.6283L86.2065 71.9806C86.4471 71.732 86.5823 71.3947 86.5823 71.0431C86.5823 70.6914 86.4471 70.3542 86.2065 70.1055C85.9659 69.8569 85.6395 69.7172 85.2992 69.7172C84.9589 69.7172 84.6326 69.8569 84.3919 70.1055L73.6275 81.2289C73.5081 81.3519 73.4134 81.4981 73.3488 81.6589C73.2842 81.8198 73.251 81.9923 73.251 82.1665C73.251 82.3406 73.2842 82.5131 73.3488 82.674C73.4134 82.8349 73.5081 82.981 73.6275 83.104L83.8793 93.6977C84.12 93.9464 84.4463 94.0861 84.7866 94.0861C85.1269 94.0861 85.4533 93.9464 85.6939 93.6977C85.9345 93.4491 86.0697 93.1118 86.0697 92.7602C86.0697 92.4085 85.9345 92.0713 85.6939 91.8226L77.6283 83.4907H102.727C103.747 83.4907 104.725 83.9092 105.446 84.6542C106.167 85.3993 106.572 86.4097 106.572 87.4633V100.176C106.572 100.527 106.707 100.864 106.947 101.112C107.188 101.36 107.513 101.5 107.853 101.5Z" fill="#4A0E63" stroke="#4A0E63" stroke-width="2"/>
<path fill-rule="evenodd" clip-rule="evenodd" d="M178.105 158.028C178.105 176.79 162.895 192 144.132 192C125.37 192 110.16 176.79 110.16 158.028C110.16 139.266 125.37 124.056 144.132 124.056C162.895 124.056 178.105 139.266 178.105 158.028ZM173.097 158.028C173.097 174.025 160.129 186.993 144.132 186.993C128.136 186.993 115.168 174.025 115.168 158.028C115.168 142.031 128.136 129.063 144.132 129.063C160.129 129.063 173.097 142.031 173.097 158.028Z" fill="#4A0E63"/>
<path d="M144.251 187.112C160.248 187.112 173.216 174.144 173.216 158.147C173.216 142.15 160.248 129.182 144.251 129.182C128.254 129.182 115.286 142.15 115.286 158.147C115.286 174.144 128.254 187.112 144.251 187.112Z" fill="#FD5F6F"/>
<g style="mix-blend-mode:multiply" opacity="0.7">
<path d="M160.995 134.525C164.543 139.431 168.504 148.406 168.504 154.461C168.494 162.139 166.465 169.501 161.035 174.931C155.605 180.361 147.218 182.39 139.539 182.4C133.484 182.4 125.532 178.438 120.626 174.887C123.299 178.631 126.825 181.683 130.913 183.79C135.001 185.898 139.533 187 144.132 187.005C151.812 186.996 159.175 183.941 164.605 178.511C170.036 173.08 173.091 165.717 173.1 158.037C173.097 153.438 171.997 148.906 169.892 144.817C167.787 140.728 164.736 137.2 160.995 134.525Z" fill="#EB0043"/>
</g>
<path d="M129.64 171.993L158.098 143.535" stroke="white" stroke-width="5" stroke-miterlimit="10" stroke-linecap="round" stroke-linejoin="round"/>
<path d="M157.803 172.243L129.751 144.19" stroke="white" stroke-width="5" stroke-miterlimit="10" stroke-linecap="round" stroke-linejoin="round"/>
</g>
<defs>
<clipPath id="clip0_8074:183114">
<rect width="192" height="192" fill="white"/>
</clipPath>
</defs>
</svg>
