<svg width="192" height="192" viewBox="0 0 192 192" fill="none" xmlns="http://www.w3.org/2000/svg">
<path d="M142.227 6.24097H40.2916C35.1847 6.29988 30.3056 8.36091 26.7065 11.9795C23.1074 15.598 21.0767 20.4842 21.0522 25.5843V157.58L29.2925 149.659C30.4148 148.611 31.8941 148.028 33.4307 148.028C34.9674 148.028 36.4467 148.611 37.569 149.659L44.3499 156.072C45.3074 156.975 46.5743 157.478 47.891 157.478C49.2078 157.478 50.4747 156.975 51.4322 156.072L58.1768 149.677C59.2988 148.619 60.7841 148.029 62.3278 148.029C63.8715 148.029 65.3567 148.619 66.4787 149.677L73.2488 156.083C74.2044 156.991 75.4728 157.497 76.7917 157.497C78.1106 157.497 79.3791 156.991 80.3347 156.083L87.0938 149.681C88.2178 148.633 89.6981 148.05 91.2357 148.05C92.7734 148.05 94.2536 148.633 95.3776 149.681L102.159 156.094C103.117 156.995 104.385 157.497 105.702 157.497C107.018 157.497 108.286 156.995 109.244 156.094L116 149.696C117.117 148.633 118.601 148.04 120.144 148.04C121.687 148.04 123.17 148.633 124.287 149.696L131.054 156.094C132.013 156.998 133.282 157.502 134.6 157.502C135.919 157.502 137.188 156.998 138.147 156.094L144.895 149.696C146.018 148.649 147.496 148.065 149.033 148.061C150.569 148.057 152.05 148.633 153.179 149.674L161.47 157.489V25.6061C161.452 20.5013 159.424 15.6084 155.823 11.9849C152.222 8.36135 147.339 6.29807 142.227 6.24097Z" fill="white"/>
<path d="M142.306 6.24097H40.8649C38.3319 6.26529 35.8287 6.79111 33.4994 7.78818C31.1702 8.78526 29.0609 10.234 27.293 12.0507L161.47 145.099V25.5367C161.445 20.4451 159.421 15.5677 155.835 11.9576C152.25 8.3474 147.39 6.29409 142.306 6.24097Z" fill="#D9D9D9"/>
<path d="M20.537 163.821H20.3808C19.6292 163.8 18.8892 163.631 18.2034 163.325C17.5175 163.018 16.8994 162.579 16.3847 162.032C15.3628 160.967 14.7984 159.546 14.8118 158.073V25.4562C14.8447 18.7424 17.5252 12.3107 22.275 7.54837C27.0248 2.78607 33.4631 0.0749617 40.2011 0H142.282C149.026 0.0626978 155.476 2.7681 160.234 7.53114C164.993 12.2942 167.679 18.7321 167.711 25.4527V158.134C167.709 159.248 167.383 160.337 166.771 161.27C166.16 162.202 165.29 162.937 164.267 163.386C163.514 163.698 162.702 163.845 161.888 163.817C160.432 163.811 159.034 163.252 157.979 162.253L149.017 153.823L142.441 160.212C140.334 162.196 137.545 163.302 134.646 163.302C131.746 163.302 128.957 162.196 126.85 160.212L120.074 153.816L113.514 160.212C111.407 162.191 108.621 163.292 105.725 163.292C102.83 163.292 100.044 162.191 97.9365 160.212L91.1578 153.812L84.5861 160.208C82.4797 162.192 79.6908 163.298 76.792 163.298C73.8932 163.298 71.1044 162.192 68.9979 160.208L62.2301 153.812L55.6621 160.205C53.5552 162.185 50.7682 163.288 47.8717 163.288C44.9751 163.288 42.1881 162.185 40.0812 160.205L33.3061 153.805L24.5185 162.242C23.4482 163.265 22.0198 163.831 20.537 163.821ZM162.149 157.751L162.178 157.78C162.178 157.78 162.189 157.769 162.164 157.751H162.149ZM142.22 6.14598H40.2083C35.0977 6.2048 30.215 8.26269 26.6132 11.8757C23.0114 15.4888 20.9792 20.3675 20.9548 25.4599V157.255L29.2011 149.346C30.3243 148.299 31.8046 147.717 33.3424 147.717C34.8802 147.717 36.3606 148.299 37.4838 149.346L44.2698 155.749C45.228 156.65 46.4958 157.152 47.8135 157.152C49.1313 157.152 50.3991 156.65 51.3573 155.749L58.1069 149.364C59.2298 148.307 60.7162 147.718 62.261 147.718C63.8059 147.718 65.2922 148.307 66.4151 149.364L73.1902 155.76C74.1464 156.666 75.4158 157.172 76.7357 157.172C78.0556 157.172 79.325 156.666 80.2813 155.76L87.0455 149.368C88.1703 148.321 89.6517 147.74 91.1905 147.74C92.7292 147.74 94.2106 148.321 95.3354 149.368L102.121 155.771C103.081 156.671 104.349 157.172 105.667 157.172C106.985 157.172 108.253 156.671 109.213 155.771L115.973 149.382C117.091 148.321 118.576 147.729 120.12 147.729C121.664 147.729 123.149 148.321 124.267 149.382L131.038 155.771C131.998 156.674 133.268 157.177 134.587 157.177C135.907 157.177 137.177 156.674 138.137 155.771L144.89 149.382C146.014 148.337 147.493 147.754 149.031 147.75C150.568 147.746 152.05 148.321 153.18 149.361L161.477 157.164V25.4816C161.459 20.3871 159.431 15.5037 155.831 11.8861C152.231 8.26851 147.347 6.20677 142.234 6.14598H142.22Z" fill="#4A0E63"/>
<path d="M72.573 44.9757C63.4042 44.9757 60.18 53.0206 57.8721 103.317C57.8721 112.958 63.6844 119.954 71.6945 119.954H112.287C114.245 119.949 116.176 119.492 117.928 118.618C119.681 117.744 121.208 116.477 122.391 114.916C124.848 111.529 126.121 107.427 126.011 103.244C123.707 53.008 120.479 44.9727 111.311 44.9727L72.573 44.9757Z" stroke="#4A0E63" stroke-width="5" stroke-linecap="round" stroke-linejoin="round"/>
<path d="M74.0752 59.6924C74.0752 44.2641 82.0758 31.783 91.9468 31.783C101.818 31.783 109.818 44.2767 109.818 59.6924" stroke="#4A0E63" stroke-width="5" stroke-linecap="round" stroke-linejoin="round"/>
<path fill-rule="evenodd" clip-rule="evenodd" d="M107.853 101.5C108.193 101.5 108.519 101.36 108.76 101.112C109 100.864 109.135 100.527 109.135 100.176V87.4633C109.135 86.5938 108.969 85.7328 108.647 84.9295C108.325 84.1262 107.853 83.3963 107.258 82.7815C106.663 82.1667 105.957 81.679 105.179 81.3462C104.402 81.0135 103.569 80.8422 102.727 80.8422H77.6283L86.2065 71.9806C86.4471 71.7319 86.5823 71.3947 86.5823 71.043C86.5823 70.6914 86.4471 70.3541 86.2065 70.1055C85.9659 69.8568 85.6395 69.7172 85.2992 69.7172C84.9589 69.7172 84.6326 69.8568 84.3919 70.1055L73.6275 81.2289C73.5081 81.3519 73.4134 81.498 73.3488 81.6589C73.2842 81.8198 73.251 81.9923 73.251 82.1665C73.251 82.3406 73.2842 82.5131 73.3488 82.674C73.4134 82.8349 73.5081 82.981 73.6275 83.104L83.8793 93.6977C84.12 93.9464 84.4463 94.0861 84.7866 94.0861C85.1269 94.0861 85.4533 93.9464 85.6939 93.6977C85.9345 93.4491 86.0697 93.1118 86.0697 92.7602C86.0697 92.4085 85.9345 92.0713 85.6939 91.8226L77.6283 83.4907H102.727C103.747 83.4907 104.725 83.9092 105.446 84.6542C106.167 85.3992 106.572 86.4097 106.572 87.4633V100.176C106.572 100.527 106.707 100.864 106.947 101.112C107.188 101.36 107.513 101.5 107.853 101.5Z" fill="#4A0E63" stroke="#4A0E63" stroke-width="2"/>
<path fill-rule="evenodd" clip-rule="evenodd" d="M177.271 158.135C177.271 176.436 162.436 191.271 144.135 191.271C125.835 191.271 111 176.436 111 158.135C111 139.835 125.835 125 144.135 125C162.436 125 177.271 139.835 177.271 158.135ZM172.387 158.135C172.387 173.738 159.738 186.387 144.135 186.387C128.533 186.387 115.884 173.738 115.884 158.135C115.884 142.533 128.533 129.884 144.135 129.884C159.738 129.884 172.387 142.533 172.387 158.135Z" fill="#4A0E63"/>
<path d="M144.251 186.503C159.854 186.503 172.503 173.854 172.503 158.251C172.503 142.649 159.854 130 144.251 130C128.649 130 116 142.649 116 158.251C116 173.854 128.649 186.503 144.251 186.503Z" fill="#FD5F6F"/>
<g style="mix-blend-mode:multiply" opacity="0.7">
<path d="M160.582 135.212C164.043 139.996 167.907 148.751 167.907 154.656C167.897 162.146 165.918 169.326 160.622 174.622C155.326 179.918 147.145 181.898 139.656 181.907C133.749 181.907 125.993 178.042 121.208 174.58C123.815 178.231 127.254 181.208 131.242 183.263C135.229 185.319 139.649 186.394 144.135 186.399C151.626 186.39 158.807 183.411 164.104 178.114C169.401 172.817 172.381 165.635 172.39 158.145C172.387 153.659 171.314 149.238 169.261 145.25C167.207 141.261 164.232 137.82 160.582 135.212Z" fill="#EB0043"/>
</g>
<path d="M143.737 147.624C145.993 147.624 147.121 148.641 147.121 150.674C147.142 151.534 146.897 152.38 146.42 153.096C145.79 153.962 145.069 154.758 144.268 155.469C143.523 156.174 142.814 156.916 142.144 157.693C141.543 158.433 141.07 159.269 140.745 160.165C140.342 161.286 140.147 162.471 140.171 163.662H146.815C146.787 162.53 147.122 161.42 147.771 160.493C148.644 159.358 149.632 158.316 150.72 157.384C152.037 156.281 153.212 155.018 154.217 153.625C155.056 152.316 155.474 150.781 155.412 149.227C155.476 147.998 155.246 146.772 154.743 145.649C154.239 144.526 153.476 143.539 152.516 142.77C150.207 141.122 147.404 140.312 144.572 140.474C143.039 140.387 141.505 140.613 140.063 141.136C138.62 141.659 137.298 142.47 136.177 143.518C135.124 144.658 134.308 145.997 133.779 147.457C133.249 148.916 133.017 150.467 133.095 152.018L139.937 152.07C139.97 149.11 141.237 147.628 143.737 147.624Z" fill="white"/>
<path d="M147.635 171.71C147.661 171.171 147.581 170.631 147.398 170.122C147.216 169.614 146.935 169.146 146.571 168.746C146.208 168.346 145.769 168.022 145.28 167.792C144.791 167.562 144.262 167.431 143.722 167.406C143.593 167.406 143.466 167.406 143.337 167.406C142.77 167.382 142.205 167.477 141.676 167.682C141.147 167.888 140.666 168.201 140.264 168.601C139.504 169.46 139.086 170.568 139.091 171.715C139.096 172.862 139.523 173.967 140.29 174.819C140.686 175.224 141.16 175.542 141.685 175.753C142.209 175.964 142.772 176.064 143.337 176.046C143.912 176.069 144.486 175.972 145.021 175.761C145.557 175.55 146.042 175.229 146.446 174.819C146.842 174.407 147.152 173.919 147.356 173.385C147.56 172.851 147.655 172.282 147.635 171.71Z" fill="white"/>
</svg>
