<svg width="192" height="192" viewBox="0 0 192 192" fill="none" xmlns="http://www.w3.org/2000/svg">
<path d="M166.05 71.6056C164.656 53.9526 156.688 37.4654 143.723 25.4045C130.757 13.3436 113.738 6.58708 96.03 6.47119C95.5536 6.47119 95.0848 6.47119 94.6084 6.47119C76.3009 6.95603 58.9003 14.5457 46.0898 27.6336C33.2793 40.7215 26.0643 58.2806 25.9717 76.5943C25.9717 125.962 76.2354 171.207 91.6434 183.894C92.9063 184.93 94.4873 185.501 96.1209 185.509C97.7545 185.517 99.3413 184.963 100.615 183.94C116.857 170.818 169.514 123.912 166.05 71.6056ZM96.0947 126.866C82.5937 126.851 69.6501 121.481 60.1034 111.934C50.5568 102.387 45.1868 89.4436 45.1717 75.9426C45.1878 62.4422 50.5582 49.4997 60.1047 39.9538C69.6513 30.408 82.5944 25.0386 96.0947 25.0235C109.602 25.0346 122.553 30.4058 132.104 39.9578C141.655 49.5098 147.024 62.4617 147.033 75.9693C147.018 89.4697 141.648 102.413 132.103 111.959C122.557 121.506 109.614 126.876 96.1138 126.892L96.0947 126.866Z" fill="white"/>
<path d="M96.114 25.0498C82.6136 25.0649 69.6705 30.4343 60.124 39.9802C50.5774 49.526 45.2071 62.4688 45.1909 75.9691C45.206 89.4701 50.576 102.414 60.1226 111.96C69.6693 121.507 82.613 126.877 96.114 126.892C109.614 126.876 122.557 121.506 132.103 111.959C141.649 102.413 147.018 89.4695 147.033 75.9691C147.017 62.4695 141.647 49.5273 132.102 39.9816C122.556 30.4358 109.614 25.0659 96.114 25.0498Z" fill="#FD5F6F"/>
<g opacity="0.7">
<path opacity="0.8" d="M166.05 71.6056C164.656 53.9526 156.688 37.4654 143.723 25.4045C130.757 13.3436 113.738 6.58708 96.0299 6.47119C95.5535 6.47119 95.0848 6.47119 94.6084 6.47119C91.0296 6.54529 87.4619 6.89696 83.9375 7.52304C93.569 9.27207 102.738 12.9825 110.875 18.4239C119.013 23.8654 125.944 30.9217 131.24 39.1546C136.22 43.8983 140.184 49.6043 142.892 55.926C145.6 62.2478 146.996 69.0537 146.995 75.9312C147.005 87.1474 143.291 98.0496 136.435 106.926C125.078 137.891 99.5208 163.917 84.1928 177.472C87.1197 180.094 89.6579 182.248 91.6244 183.867C92.8872 184.904 94.4682 185.474 96.1018 185.482C97.7354 185.491 99.3222 184.936 100.596 183.913C116.857 170.818 169.514 123.912 166.05 71.6056Z" fill="#D9D9D9"/>
</g>
<path d="M96.1141 18.564C80.8945 18.5811 66.3031 24.6347 55.5412 35.3966C44.7792 46.1585 38.7256 60.7499 38.7085 75.9696C38.7246 91.1899 44.7778 105.782 55.5398 116.545C66.3019 127.308 80.8938 133.362 96.1141 133.379C111.334 133.361 125.925 127.306 136.686 116.544C147.447 105.781 153.5 91.1892 153.516 75.9696C153.499 60.7506 147.446 46.1598 136.685 35.398C125.924 24.6362 111.333 18.5821 96.1141 18.564ZM96.1141 126.169C82.8049 126.154 70.0448 120.861 60.6337 111.45C51.2226 102.039 45.9293 89.2788 45.9152 75.9696C45.9303 62.661 51.2241 49.9019 60.6351 40.4916C70.046 31.0814 82.8055 25.7884 96.1141 25.7743C109.422 25.7895 122.181 31.0829 131.591 40.493C141.001 49.9031 146.294 62.6616 146.309 75.9696C146.295 89.2782 141.002 102.038 131.592 111.449C122.182 120.86 109.423 126.153 96.1141 126.169Z" fill="#4A0E63"/>
<path d="M172.529 71.1901C170.936 51.9281 162.212 33.9541 148.063 20.7867C133.914 7.61932 115.361 0.206716 96.034 0C95.5195 0 95.0012 0 94.4829 0C74.4809 0.5236 55.468 8.81213 41.4708 23.1102C27.4736 37.4083 19.5913 56.5933 19.4932 76.602C19.4932 98.9003 28.7273 122.525 46.9326 146.82C58.8144 162.359 72.4404 176.482 87.543 188.913C89.9781 190.91 93.0299 192.001 96.1788 192C99.2848 192.001 102.298 190.939 104.716 188.989C120.502 176.231 134.638 161.556 146.797 145.303C165.437 119.819 174.099 94.8833 172.529 71.1901ZM100.169 183.387C99.0242 184.305 97.5992 184.801 96.1321 184.795C94.665 184.788 93.2447 184.277 92.1087 183.349C76.7692 170.708 26.7037 125.654 26.7037 76.6057C26.7954 58.4825 33.9365 41.1065 46.6151 28.1562C59.2937 15.2059 76.5144 7.69798 94.6316 7.22199C95.1003 7.22199 95.5653 7.22199 96.034 7.22199C113.539 7.40418 130.345 14.1133 143.163 26.036C155.981 37.9586 163.887 54.2361 165.334 71.6819C168.771 123.619 116.332 170.311 100.18 183.387H100.169Z" fill="#4A0E63"/>
<path d="M73.6066 73.9874C72.6513 74.9448 72.1147 76.2422 72.1147 77.5947C72.1147 78.9472 72.6513 80.2443 73.6066 81.2017C74.0801 81.6757 74.6425 82.0517 75.2614 82.3082C75.8803 82.5647 76.5438 82.6967 77.2137 82.6967C77.8837 82.6967 78.5471 82.5647 79.1661 82.3082C79.785 82.0517 80.3473 81.6757 80.8209 81.2017C84.8791 77.1523 90.3779 74.8783 96.1108 74.8783C101.844 74.8783 107.342 77.1523 111.401 81.2017C111.874 81.6754 112.436 82.0512 113.055 82.3075C113.673 82.5639 114.336 82.6959 115.006 82.6958C115.676 82.6966 116.34 82.5648 116.959 82.3085C117.579 82.0521 118.141 81.676 118.615 81.2017C119.57 80.2443 120.107 78.9472 120.107 77.5947C120.107 76.2422 119.57 74.9448 118.615 73.9874C112.641 68.0292 104.548 64.6833 96.1108 64.6833C87.6735 64.6833 79.5805 68.0292 73.6066 73.9874Z" fill="white"/>
<path d="M133.249 59.3575C128.383 54.4648 122.595 50.5859 116.221 47.9451C109.846 45.3042 103.011 43.9539 96.1104 43.9724C89.2108 43.9542 82.3762 45.3047 76.002 47.9455C69.6278 50.5864 63.8407 54.4651 58.9756 59.3575C58.5018 59.8307 58.1259 60.3927 57.8694 61.0113C57.613 61.6299 57.481 62.293 57.481 62.9626C57.481 63.6323 57.613 64.2956 57.8694 64.9142C58.1259 65.5328 58.5018 66.0948 58.9756 66.568C59.4492 67.042 60.0115 67.4178 60.6305 67.6743C61.2494 67.9308 61.9128 68.063 62.5828 68.063C63.2528 68.063 63.9162 67.9308 64.5351 67.6743C65.1541 67.4178 65.7164 67.042 66.1899 66.568C70.1099 62.6265 74.7728 59.5014 79.9087 57.374C85.0446 55.2467 90.5514 54.1593 96.1104 54.1745C101.67 54.1592 107.177 55.2467 112.314 57.374C117.45 59.5014 122.114 62.6263 126.035 66.568C126.507 67.0431 127.069 67.4198 127.688 67.6762C128.306 67.9326 128.97 68.0636 129.64 68.0618C130.31 68.0636 130.973 67.9326 131.592 67.6762C132.211 67.4198 132.773 67.0431 133.245 66.568C134.202 65.6123 134.739 64.3157 134.74 62.9636C134.741 61.6114 134.204 60.3142 133.249 59.3575Z" fill="white"/>
<path d="M96.114 104.144C100.34 104.144 103.767 100.718 103.767 96.4919C103.767 92.2655 100.34 88.8394 96.114 88.8394C91.8876 88.8394 88.4614 92.2655 88.4614 96.4919C88.4614 100.718 91.8876 104.144 96.114 104.144Z" fill="white"/>
</svg>
